<svg viewBox="0 0 330 200" xmlns="http://www.w3.org/2000/svg"><g><g><g><g><g><line x1="70" y1="172.23556808720932" x2="65" y2="172.23556808720932" style="visibility: inherit;" fill="rgb(0, 0, 0)" stroke="rgb(204, 204, 204)" stroke-width="1px"></line><line x1="70" y1="157.95674332613504" x2="65" y2="157.95674332613504" style="visibility: inherit;" fill="rgb(0, 0, 0)" stroke="rgb(204, 204, 204)" stroke-width="1px"></line><line x1="70" y1="143.6779185650608" x2="65" y2="143.6779185650608" style="visibility: inherit;" fill="rgb(0, 0, 0)" stroke="rgb(204, 204, 204)" stroke-width="1px"></line><line x1="70" y1="129.3990938039866" x2="65" y2="129.3990938039866" style="visibility: inherit;" fill="rgb(0, 0, 0)" stroke="rgb(204, 204, 204)" stroke-width="1px"></line><line x1="70" y1="115.12026904291233" x2="65" y2="115.12026904291233" style="visibility: inherit;" fill="rgb(0, 0, 0)" stroke="rgb(204, 204, 204)" stroke-width="1px"></line><line x1="70" y1="100.84144428183806" x2="65" y2="100.84144428183806" style="visibility: inherit;" fill="rgb(0, 0, 0)" stroke="rgb(204, 204, 204)" stroke-width="1px"></line><line x1="70" y1="86.56261952076379" x2="65" y2="86.56261952076379" style="visibility: inherit;" fill="rgb(0, 0, 0)" stroke="rgb(204, 204, 204)" stroke-width="1px"></line><line x1="70" y1="72.28379475968951" x2="65" y2="72.28379475968951" style="visibility: inherit;" fill="rgb(0, 0, 0)" stroke="rgb(204, 204, 204)" stroke-width="1px"></line><line x1="70" y1="58.004969998615266" x2="65" y2="58.004969998615266" style="visibility: inherit;" fill="rgb(0, 0, 0)" stroke="rgb(204, 204, 204)" stroke-width="1px"></line><line x1="70" y1="43.72614523754109" x2="65" y2="43.72614523754109" style="visibility: inherit;" fill="rgb(0, 0, 0)" stroke="rgb(204, 204, 204)" stroke-width="1px"></line><line x1="70" y1="29.447320476466814" x2="65" y2="29.447320476466814" style="visibility: inherit;" fill="rgb(0, 0, 0)" stroke="rgb(204, 204, 204)" stroke-width="1px"></line><line x1="70" y1="15.168495715392538" x2="65" y2="15.168495715392538" style="visibility: inherit;" fill="rgb(0, 0, 0)" stroke="rgb(204, 204, 204)" stroke-width="1px"></line><line x1="70" y1="0.8896709543182908" x2="65" y2="0.8896709543182908" style="visibility: inherit;" fill="rgb(0, 0, 0)" stroke="rgb(204, 204, 204)" stroke-width="1px"></line></g><g transform="translate(60, 0)"><text x="0" y="172.23556808720932" dx="0em" dy="0.3em" style="text-anchor: end; visibility: inherit; font-family: &quot;Helvetica Neue&quot;, sans-serif; font-size: 12px; font-weight: 200;" fill="rgb(50, 49, 63)" stroke="none" stroke-width="1px">0.19</text><text x="0" y="157.95674332613504" dx="0em" dy="0.3em" style="text-anchor: end; visibility: hidden; font-family: &quot;Helvetica Neue&quot;, sans-serif; font-size: 12px; font-weight: 200;" fill="rgb(50, 49, 63)" stroke="none" stroke-width="1px">0.195</text><text x="0" y="143.6779185650608" dx="0em" dy="0.3em" style="text-anchor: end; visibility: inherit; font-family: &quot;Helvetica Neue&quot;, sans-serif; font-size: 12px; font-weight: 200;" fill="rgb(50, 49, 63)" stroke="none" stroke-width="1px">0.2</text><text x="0" y="129.3990938039866" dx="0em" dy="0.3em" style="text-anchor: end; visibility: hidden; font-family: &quot;Helvetica Neue&quot;, sans-serif; font-size: 12px; font-weight: 200;" fill="rgb(50, 49, 63)" stroke="none" stroke-width="1px">0.205</text><text x="0" y="115.12026904291233" dx="0em" dy="0.3em" style="text-anchor: end; visibility: inherit; font-family: &quot;Helvetica Neue&quot;, sans-serif; font-size: 12px; font-weight: 200;" fill="rgb(50, 49, 63)" stroke="none" stroke-width="1px">0.21</text><text x="0" y="100.84144428183806" dx="0em" dy="0.3em" style="text-anchor: end; visibility: hidden; font-family: &quot;Helvetica Neue&quot;, sans-serif; font-size: 12px; font-weight: 200;" fill="rgb(50, 49, 63)" stroke="none" stroke-width="1px">0.215</text><text x="0" y="86.56261952076379" dx="0em" dy="0.3em" style="text-anchor: end; visibility: inherit; font-family: &quot;Helvetica Neue&quot;, sans-serif; font-size: 12px; font-weight: 200;" fill="rgb(50, 49, 63)" stroke="none" stroke-width="1px">0.22</text><text x="0" y="72.28379475968951" dx="0em" dy="0.3em" style="text-anchor: end; visibility: hidden; font-family: &quot;Helvetica Neue&quot;, sans-serif; font-size: 12px; font-weight: 200;" fill="rgb(50, 49, 63)" stroke="none" stroke-width="1px">0.225</text><text x="0" y="58.004969998615266" dx="0em" dy="0.3em" style="text-anchor: end; visibility: inherit; font-family: &quot;Helvetica Neue&quot;, sans-serif; font-size: 12px; font-weight: 200;" fill="rgb(50, 49, 63)" stroke="none" stroke-width="1px">0.23</text><text x="0" y="43.72614523754109" dx="0em" dy="0.3em" style="text-anchor: end; visibility: hidden; font-family: &quot;Helvetica Neue&quot;, sans-serif; font-size: 12px; font-weight: 200;" fill="rgb(50, 49, 63)" stroke="none" stroke-width="1px">0.235</text><text x="0" y="29.447320476466814" dx="0em" dy="0.3em" style="text-anchor: end; visibility: inherit; font-family: &quot;Helvetica Neue&quot;, sans-serif; font-size: 12px; font-weight: 200;" fill="rgb(50, 49, 63)" stroke="none" stroke-width="1px">0.24</text><text x="0" y="15.168495715392538" dx="0em" dy="0.3em" style="text-anchor: end; visibility: hidden; font-family: &quot;Helvetica Neue&quot;, sans-serif; font-size: 12px; font-weight: 200;" fill="rgb(50, 49, 63)" stroke="none" stroke-width="1px">0.245</text><text x="0" y="0.8896709543182908" dx="0em" dy="0.3em" style="text-anchor: end; visibility: hidden; font-family: &quot;Helvetica Neue&quot;, sans-serif; font-size: 12px; font-weight: 200;" fill="rgb(50, 49, 63)" stroke="none" stroke-width="1px">0.25</text></g><line x1="70" y1="0" x2="70" y2="178" fill="rgb(0, 0, 0)" stroke="rgb(204, 204, 204)" stroke-width="1px"></line></g></g><g transform="translate(70, 0)" clip-path="url(#clip_0)"><clipPath id="clip_0"><rect width="260" height="178"></rect></clipPath><g><g><g><line x1="16.125349924460796" y1="0" x2="16.125349924460796" y2="178" fill="rgb(0, 0, 0)" stroke="rgb(60, 60, 60)" stroke-width="1px" opacity="0.25"></line><line x1="45.92065038898173" y1="0" x2="45.92065038898173" y2="178" fill="rgb(0, 0, 0)" stroke="rgb(60, 60, 60)" stroke-width="1px" opacity="0.25"></line><line x1="75.71595085350266" y1="0" x2="75.71595085350266" y2="178" fill="rgb(0, 0, 0)" stroke="rgb(60, 60, 60)" stroke-width="1px" opacity="0.25"></line><line x1="105.51125131802357" y1="0" x2="105.51125131802357" y2="178" fill="rgb(0, 0, 0)" stroke="rgb(60, 60, 60)" stroke-width="1px" opacity="0.25"></line><line x1="135.3065517825445" y1="0" x2="135.3065517825445" y2="178" fill="rgb(0, 0, 0)" stroke="rgb(60, 60, 60)" stroke-width="1px" opacity="0.25"></line><line x1="165.10185224706544" y1="0" x2="165.10185224706544" y2="178" fill="rgb(0, 0, 0)" stroke="rgb(60, 60, 60)" stroke-width="1px" opacity="0.25"></line><line x1="194.89715271158636" y1="0" x2="194.89715271158636" y2="178" fill="rgb(0, 0, 0)" stroke="rgb(60, 60, 60)" stroke-width="1px" opacity="0.25"></line><line x1="224.69245317610728" y1="0" x2="224.69245317610728" y2="178" fill="rgb(0, 0, 0)" stroke="rgb(60, 60, 60)" stroke-width="1px" opacity="0.25"></line><line x1="254.48775364062817" y1="0" x2="254.48775364062817" y2="178" fill="rgb(0, 0, 0)" stroke="rgb(60, 60, 60)" stroke-width="1px" opacity="0.25"></line></g><g><line x1="0" y1="172.23556808720932" x2="260" y2="172.23556808720932" fill="rgb(0, 0, 0)" stroke="rgb(60, 60, 60)" stroke-width="1px" opacity="0.25"></line><line x1="0" y1="157.95674332613504" x2="260" y2="157.95674332613504" fill="rgb(0, 0, 0)" stroke="rgb(60, 60, 60)" stroke-width="1px" opacity="0.25"></line><line x1="0" y1="143.6779185650608" x2="260" y2="143.6779185650608" fill="rgb(0, 0, 0)" stroke="rgb(60, 60, 60)" stroke-width="1px" opacity="0.25"></line><line x1="0" y1="129.3990938039866" x2="260" y2="129.3990938039866" fill="rgb(0, 0, 0)" stroke="rgb(60, 60, 60)" stroke-width="1px" opacity="0.25"></line><line x1="0" y1="115.12026904291233" x2="260" y2="115.12026904291233" fill="rgb(0, 0, 0)" stroke="rgb(60, 60, 60)" stroke-width="1px" opacity="0.25"></line><line x1="0" y1="100.84144428183806" x2="260" y2="100.84144428183806" fill="rgb(0, 0, 0)" stroke="rgb(60, 60, 60)" stroke-width="1px" opacity="0.25"></line><line x1="0" y1="86.56261952076379" x2="260" y2="86.56261952076379" fill="rgb(0, 0, 0)" stroke="rgb(60, 60, 60)" stroke-width="1px" opacity="0.25"></line><line x1="0" y1="72.28379475968951" x2="260" y2="72.28379475968951" fill="rgb(0, 0, 0)" stroke="rgb(60, 60, 60)" stroke-width="1px" opacity="0.25"></line><line x1="0" y1="58.004969998615266" x2="260" y2="58.004969998615266" fill="rgb(0, 0, 0)" stroke="rgb(60, 60, 60)" stroke-width="1px" opacity="0.25"></line><line x1="0" y1="43.72614523754109" x2="260" y2="43.72614523754109" fill="rgb(0, 0, 0)" stroke="rgb(60, 60, 60)" stroke-width="1px" opacity="0.25"></line><line x1="0" y1="29.447320476466814" x2="260" y2="29.447320476466814" fill="rgb(0, 0, 0)" stroke="rgb(60, 60, 60)" stroke-width="1px" opacity="0.25"></line><line x1="0" y1="15.168495715392538" x2="260" y2="15.168495715392538" fill="rgb(0, 0, 0)" stroke="rgb(60, 60, 60)" stroke-width="1px" opacity="0.25"></line><line x1="0" y1="0.8896709543182908" x2="260" y2="0.8896709543182908" fill="rgb(0, 0, 0)" stroke="rgb(60, 60, 60)" stroke-width="1px" opacity="0.25"></line></g></g></g><g><g><line x1="0" y1="714.830909008031" x2="260" y2="714.830909008031" fill="rgb(0, 0, 0)" stroke="rgb(153, 153, 153)" stroke-width="1.5px"></line></g></g><g><g><line x1="-13.669950540060128" y1="0" x2="-13.669950540060128" y2="178" fill="rgb(0, 0, 0)" stroke="rgb(153, 153, 153)" stroke-width="1.5px"></line></g></g><g><g><g><g><g><path stroke="rgb(0, 119, 187)" stroke-width="2px" d="M52.59479769303441,154.58706577148433L52.65438829396346,154.0264140035535L52.7139788948925,153.78747209259095L52.77356949582154,153.12575406668395L52.833160096750575,154.12752281574353L52.892750697679624,155.26712466357563L89.54097026904036,113.85472544583561L89.60056086996941,112.7059318878044L89.66015147089844,112.20043038106813L89.71974207182748,112.12693925368926L89.77933267275652,113.93745083762745L127.08304885433672,110.48183589912087L127.14263945526577,112.2371972218645L127.20223005619481,111.86957136811462L127.26182065712385,107.41218768054846L127.32141125805289,102.03576063571454L127.38100185898193,99.37969682188748L127.44059245991097,96.06191498215341L127.50018306084003,94.51792043977505L127.55977366176906,93.21286780835925L127.6193642626981,92.95554247699852L127.67895486362715,94.02161064323786L127.73854546455618,94.94988826491858L127.79813606548522,96.56741648888969L127.85772666641427,98.14817787206442L127.91731726734331,99.3429299810911L127.97690786827235,101.18101669562657L128.03649846920138,102.25631912627891L128.09608907013043,102.20116886508434L128.1556796710595,100.44580754234072L128.21527027198852,98.29520268103605L128.27486087291757,96.29166518291687L128.3344514738466,96.36519886450962L128.39404207477565,95.55645602963101L128.45363267570468,96.68686616726403L128.51322327663374,99.53591334105819L128.57281387756277,105.17889998166582L128.63240447849182,112.46698997684184L128.69199507942085,117.89856728287032L128.7515856803499,122.79711050577912L128.81117628127893,124.44221386034752L128.870766882208,121.66665781393222L128.93035748313702,117.31038293855607L128.98994808406607,112.02583044149922L129.0495386849951,103.85546392985184L129.10912928592415,97.99191879867983L129.16871988685318,93.24963464915562L129.22831048778224,89.51826840467622L129.28790108871127,87.60664800854799L129.34749168964032,86.86224714506304L188.46136781124983,59.63078437911403L188.52095841217889,59.55725069752127L188.5805490131079,58.76684872882696L188.64013961403694,58.74846530842876L188.699730214966,58.969066353207026L188.75932081589505,59.6858920860947L188.81891141682408,60.310885825419206L188.87850201775314,61.321803730464L188.93809261868216,60.95422043092802L188.9976832196112,60.28331069482192L189.05727382054025,59.74104234728925L189.1168644214693,59.63997608931312L189.17645502239833,60.90826187993254L189.23604562332736,62.360339320319966L189.2956362242564,62.74634859446803L225.82467459375908,56.85522833269873L225.8842651946881,60.1730101724328L225.94385579561717,62.59928123128252L226.0034463965462,64.97044458315156L226.06303699747522,66.60635622752086L226.12262759840428,67.55297471538589L226.18221819933333,70.10792971702291L226.24180880026236,74.79510615956643L226.30139940119142,78.99516451577186L226.36099000212045,83.46173991353713L226.42058060304947,84.69325886336017L226.48017120397853,87.44123977917819L226.53976180490758,85.25391063129102L226.5993524058366,78.60915524162381L226.65894300676564,72.38717596690101L226.7185336076947,69.96090490805129L226.77812420862375,65.54024550706762L226.83771480955278,61.73538813520935L226.89730541048183,60.0075593888491L226.9568960114109,58.5462902382626L227.0164866123399,56.20270201699083L227.07607721326895,55.798309322444595L227.135667814198,58.40841458527619L227.19525841512703,62.59013207529732L227.25484901605608,65.01640313414703L227.3144396169851,66.48686399493265L227.37403021791414,66.33064747576194L227.4336208188432,66.28468892476646L227.49321141977225,64.4006436592355L227.55280202070128,62.93014024423603L227.61239262163033,62.66362320267618L227.67198322255936,60.95422043092802L227.7315738234884,60.43033550379354L227.79116442441745,57.58128832999938L227.8507550253465,53.243354320807555L227.91034562627556,49.907231614889184L227.96993622720458,46.75485800452492L228.0295268281336,45.12813807035474L228.08911742906267,43.81389372873983L228.1487080299917,43.905810830730786L228.20829863092075,43.80474457275463L228.2678892318498,44.12641187550901L228.3274798327788,45.367122535531166L228.38707043370786,46.45157412216872L228.44666103463692,47.03980102069684L228.50625163556595,48.133444317533474L228.565842236495,48.47349504068606" style="fill: none;" fill="none"></path></g></g></g></g></g></g><g transform="translate(70, 178)" clip-path="url(#clip_1)"><clipPath id="clip_1"><rect width="260" height="22"></rect></clipPath><g><g><line x1="16.125349924460796" y1="0" x2="16.125349924460796" y2="5" style="visibility: inherit;" fill="rgb(0, 0, 0)" stroke="rgb(204, 204, 204)" stroke-width="1px"></line><line x1="45.92065038898173" y1="0" x2="45.92065038898173" y2="5" style="visibility: inherit;" fill="rgb(0, 0, 0)" stroke="rgb(204, 204, 204)" stroke-width="1px"></line><line x1="75.71595085350266" y1="0" x2="75.71595085350266" y2="5" style="visibility: inherit;" fill="rgb(0, 0, 0)" stroke="rgb(204, 204, 204)" stroke-width="1px"></line><line x1="105.51125131802357" y1="0" x2="105.51125131802357" y2="5" style="visibility: inherit;" fill="rgb(0, 0, 0)" stroke="rgb(204, 204, 204)" stroke-width="1px"></line><line x1="135.3065517825445" y1="0" x2="135.3065517825445" y2="5" style="visibility: inherit;" fill="rgb(0, 0, 0)" stroke="rgb(204, 204, 204)" stroke-width="1px"></line><line x1="165.10185224706544" y1="0" x2="165.10185224706544" y2="5" style="visibility: inherit;" fill="rgb(0, 0, 0)" stroke="rgb(204, 204, 204)" stroke-width="1px"></line><line x1="194.89715271158636" y1="0" x2="194.89715271158636" y2="5" style="visibility: inherit;" fill="rgb(0, 0, 0)" stroke="rgb(204, 204, 204)" stroke-width="1px"></line><line x1="224.69245317610728" y1="0" x2="224.69245317610728" y2="5" style="visibility: inherit;" fill="rgb(0, 0, 0)" stroke="rgb(204, 204, 204)" stroke-width="1px"></line><line x1="254.48775364062817" y1="0" x2="254.48775364062817" y2="5" style="visibility: inherit;" fill="rgb(0, 0, 0)" stroke="rgb(204, 204, 204)" stroke-width="1px"></line></g><g transform="translate(0, 8)"><text x="16.125349924460796" y="0" dx="0em" dy="0.95em" style="text-anchor: middle; visibility: inherit; font-family: &quot;Helvetica Neue&quot;, sans-serif; font-size: 12px; font-weight: 200;" fill="rgb(50, 49, 63)" stroke="none" stroke-width="1px">500</text><text x="45.92065038898173" y="0" dx="0em" dy="0.95em" style="text-anchor: middle; visibility: inherit; font-family: &quot;Helvetica Neue&quot;, sans-serif; font-size: 12px; font-weight: 200;" fill="rgb(50, 49, 63)" stroke="none" stroke-width="1px">1k</text><text x="75.71595085350266" y="0" dx="0em" dy="0.95em" style="text-anchor: middle; visibility: inherit; font-family: &quot;Helvetica Neue&quot;, sans-serif; font-size: 12px; font-weight: 200;" fill="rgb(50, 49, 63)" stroke="none" stroke-width="1px">1.5k</text><text x="105.51125131802357" y="0" dx="0em" dy="0.95em" style="text-anchor: middle; visibility: inherit; font-family: &quot;Helvetica Neue&quot;, sans-serif; font-size: 12px; font-weight: 200;" fill="rgb(50, 49, 63)" stroke="none" stroke-width="1px">2k</text><text x="135.3065517825445" y="0" dx="0em" dy="0.95em" style="text-anchor: middle; visibility: inherit; font-family: &quot;Helvetica Neue&quot;, sans-serif; font-size: 12px; font-weight: 200;" fill="rgb(50, 49, 63)" stroke="none" stroke-width="1px">2.5k</text><text x="165.10185224706544" y="0" dx="0em" dy="0.95em" style="text-anchor: middle; visibility: inherit; font-family: &quot;Helvetica Neue&quot;, sans-serif; font-size: 12px; font-weight: 200;" fill="rgb(50, 49, 63)" stroke="none" stroke-width="1px">3k</text><text x="194.89715271158636" y="0" dx="0em" dy="0.95em" style="text-anchor: middle; visibility: inherit; font-family: &quot;Helvetica Neue&quot;, sans-serif; font-size: 12px; font-weight: 200;" fill="rgb(50, 49, 63)" stroke="none" stroke-width="1px">3.5k</text><text x="224.69245317610728" y="0" dx="0em" dy="0.95em" style="text-anchor: middle; visibility: inherit; font-family: &quot;Helvetica Neue&quot;, sans-serif; font-size: 12px; font-weight: 200;" fill="rgb(50, 49, 63)" stroke="none" stroke-width="1px">4k</text><text x="254.48775364062817" y="0" dx="0em" dy="0.95em" style="text-anchor: middle; visibility: hidden; font-family: &quot;Helvetica Neue&quot;, sans-serif; font-size: 12px; font-weight: 200;" fill="rgb(50, 49, 63)" stroke="none" stroke-width="1px">4.5k</text></g><line x1="0" y1="0" x2="260" y2="0" fill="rgb(0, 0, 0)" stroke="rgb(204, 204, 204)" stroke-width="1px"></line></g></g></g></g></svg>