<svg viewBox="0 0 330 200" xmlns="http://www.w3.org/2000/svg"><g><g><g><g><g><line x1="70" y1="161.85763070003895" x2="65" y2="161.85763070003895" style="visibility: inherit;" fill="rgb(0, 0, 0)" stroke="rgb(204, 204, 204)" stroke-width="1px"></line><line x1="70" y1="138.23040212623005" x2="65" y2="138.23040212623005" style="visibility: inherit;" fill="rgb(0, 0, 0)" stroke="rgb(204, 204, 204)" stroke-width="1px"></line><line x1="70" y1="114.60317355242111" x2="65" y2="114.60317355242111" style="visibility: inherit;" fill="rgb(0, 0, 0)" stroke="rgb(204, 204, 204)" stroke-width="1px"></line><line x1="70" y1="90.97594497861215" x2="65" y2="90.97594497861215" style="visibility: inherit;" fill="rgb(0, 0, 0)" stroke="rgb(204, 204, 204)" stroke-width="1px"></line><line x1="70" y1="67.34871640480326" x2="65" y2="67.34871640480326" style="visibility: inherit;" fill="rgb(0, 0, 0)" stroke="rgb(204, 204, 204)" stroke-width="1px"></line><line x1="70" y1="43.721487830994306" x2="65" y2="43.721487830994306" style="visibility: inherit;" fill="rgb(0, 0, 0)" stroke="rgb(204, 204, 204)" stroke-width="1px"></line><line x1="70" y1="20.09425925718537" x2="65" y2="20.09425925718537" style="visibility: inherit;" fill="rgb(0, 0, 0)" stroke="rgb(204, 204, 204)" stroke-width="1px"></line></g><g transform="translate(60, 0)"><text x="0" y="161.85763070003895" dx="0em" dy="0.3em" style="text-anchor: end; visibility: inherit; font-family: &quot;Helvetica Neue&quot;, sans-serif; font-size: 12px; font-weight: 200;" fill="rgb(50, 49, 63)" stroke="none" stroke-width="1px">0.07</text><text x="0" y="138.23040212623005" dx="0em" dy="0.3em" style="text-anchor: end; visibility: inherit; font-family: &quot;Helvetica Neue&quot;, sans-serif; font-size: 12px; font-weight: 200;" fill="rgb(50, 49, 63)" stroke="none" stroke-width="1px">0.075</text><text x="0" y="114.60317355242111" dx="0em" dy="0.3em" style="text-anchor: end; visibility: inherit; font-family: &quot;Helvetica Neue&quot;, sans-serif; font-size: 12px; font-weight: 200;" fill="rgb(50, 49, 63)" stroke="none" stroke-width="1px">0.08</text><text x="0" y="90.97594497861215" dx="0em" dy="0.3em" style="text-anchor: end; visibility: inherit; font-family: &quot;Helvetica Neue&quot;, sans-serif; font-size: 12px; font-weight: 200;" fill="rgb(50, 49, 63)" stroke="none" stroke-width="1px">0.085</text><text x="0" y="67.34871640480326" dx="0em" dy="0.3em" style="text-anchor: end; visibility: inherit; font-family: &quot;Helvetica Neue&quot;, sans-serif; font-size: 12px; font-weight: 200;" fill="rgb(50, 49, 63)" stroke="none" stroke-width="1px">0.09</text><text x="0" y="43.721487830994306" dx="0em" dy="0.3em" style="text-anchor: end; visibility: inherit; font-family: &quot;Helvetica Neue&quot;, sans-serif; font-size: 12px; font-weight: 200;" fill="rgb(50, 49, 63)" stroke="none" stroke-width="1px">0.095</text><text x="0" y="20.09425925718537" dx="0em" dy="0.3em" style="text-anchor: end; visibility: inherit; font-family: &quot;Helvetica Neue&quot;, sans-serif; font-size: 12px; font-weight: 200;" fill="rgb(50, 49, 63)" stroke="none" stroke-width="1px">0.1</text></g><line x1="70" y1="0" x2="70" y2="178" fill="rgb(0, 0, 0)" stroke="rgb(204, 204, 204)" stroke-width="1px"></line></g></g><g transform="translate(70, 0)" clip-path="url(#clip_0)"><clipPath id="clip_0"><rect width="260" height="178"></rect></clipPath><g><g><g><line x1="9.941619545560666" y1="0" x2="9.941619545560666" y2="178" fill="rgb(0, 0, 0)" stroke="rgb(60, 60, 60)" stroke-width="1px" opacity="0.25"></line><line x1="44.45330173202317" y1="0" x2="44.45330173202317" y2="178" fill="rgb(0, 0, 0)" stroke="rgb(60, 60, 60)" stroke-width="1px" opacity="0.25"></line><line x1="78.96498391848567" y1="0" x2="78.96498391848567" y2="178" fill="rgb(0, 0, 0)" stroke="rgb(60, 60, 60)" stroke-width="1px" opacity="0.25"></line><line x1="113.47666610494818" y1="0" x2="113.47666610494818" y2="178" fill="rgb(0, 0, 0)" stroke="rgb(60, 60, 60)" stroke-width="1px" opacity="0.25"></line><line x1="147.98834829141066" y1="0" x2="147.98834829141066" y2="178" fill="rgb(0, 0, 0)" stroke="rgb(60, 60, 60)" stroke-width="1px" opacity="0.25"></line><line x1="182.50003047787317" y1="0" x2="182.50003047787317" y2="178" fill="rgb(0, 0, 0)" stroke="rgb(60, 60, 60)" stroke-width="1px" opacity="0.25"></line><line x1="217.01171266433568" y1="0" x2="217.01171266433568" y2="178" fill="rgb(0, 0, 0)" stroke="rgb(60, 60, 60)" stroke-width="1px" opacity="0.25"></line><line x1="251.52339485079818" y1="0" x2="251.52339485079818" y2="178" fill="rgb(0, 0, 0)" stroke="rgb(60, 60, 60)" stroke-width="1px" opacity="0.25"></line></g><g><line x1="0" y1="161.85763070003895" x2="260" y2="161.85763070003895" fill="rgb(0, 0, 0)" stroke="rgb(60, 60, 60)" stroke-width="1px" opacity="0.25"></line><line x1="0" y1="138.23040212623005" x2="260" y2="138.23040212623005" fill="rgb(0, 0, 0)" stroke="rgb(60, 60, 60)" stroke-width="1px" opacity="0.25"></line><line x1="0" y1="114.60317355242111" x2="260" y2="114.60317355242111" fill="rgb(0, 0, 0)" stroke="rgb(60, 60, 60)" stroke-width="1px" opacity="0.25"></line><line x1="0" y1="90.97594497861215" x2="260" y2="90.97594497861215" fill="rgb(0, 0, 0)" stroke="rgb(60, 60, 60)" stroke-width="1px" opacity="0.25"></line><line x1="0" y1="67.34871640480326" x2="260" y2="67.34871640480326" fill="rgb(0, 0, 0)" stroke="rgb(60, 60, 60)" stroke-width="1px" opacity="0.25"></line><line x1="0" y1="43.721487830994306" x2="260" y2="43.721487830994306" fill="rgb(0, 0, 0)" stroke="rgb(60, 60, 60)" stroke-width="1px" opacity="0.25"></line><line x1="0" y1="20.09425925718537" x2="260" y2="20.09425925718537" fill="rgb(0, 0, 0)" stroke="rgb(60, 60, 60)" stroke-width="1px" opacity="0.25"></line></g></g></g><g><g><line x1="0" y1="492.63883073336405" x2="260" y2="492.63883073336405" fill="rgb(0, 0, 0)" stroke="rgb(153, 153, 153)" stroke-width="1.5px"></line></g></g><g><g><line x1="-59.081744827364346" y1="0" x2="-59.081744827364346" y2="178" fill="rgb(0, 0, 0)" stroke="rgb(153, 153, 153)" stroke-width="1.5px"></line></g></g><g><g><g><g><g><path stroke="rgb(0, 119, 187)" stroke-width="2px" d="M17.672236355328266,147.45495080290937L17.741259719701194,147.17526389926823L17.81028308407412,147.12864941532806L17.879306448447043,148.17754571861062L17.948329812819967,148.4339605875958L18.017353177192895,148.71364749123694L60.46672226654178,97.73673087614124L60.535745630914704,97.29385807139529L60.60476899528762,97.34047255533548L60.673792359660546,98.48263303381256L60.74281572403348,101.93235129658561L103.95144182148452,75.87284795711336L104.02046518585745,77.10820219615668L104.08948855023037,77.55107500090261L104.1585119146033,77.24808085529139L104.22753527897622,76.68867184069498L104.29655864334916,77.78418262791772L104.36558200772208,77.48115327499232L104.434605372095,77.76087538594761L104.50362873646793,78.20374819069357L104.57265210084086,79.3225662198864L104.64167546521378,80.20831182937829L104.7106988295867,80.23161907134839L104.77972219395961,81.257243339975L104.84874555833254,81.9098813224518L104.91776892270548,82.53924727027265L104.9867922870784,83.77460150931596L105.05581565145133,84.05432362027125L105.12483901582425,83.51822184764491L105.19386238019717,82.9821200750186L105.2628857445701,82.65578348012313L105.33190910894302,81.65350166078076L105.40093247331595,83.30842146259991L105.46995583768889,82.49259757901831L105.53897920206181,83.00542731698869L105.60800256643473,83.42495767245039L105.67702593080764,85.05660543961362L105.74604929518057,88.43643718379052L105.8150726595535,89.41541176116279L105.88409602392642,92.67867208817508L105.95311938829934,95.28929443271056L106.02214275267228,94.00729050241291L106.0911661170452,89.48533348707308L106.16018948141813,86.92132562647777L106.22921284579105,82.56255451224276L106.29823621016398,80.60457015018406L106.3672595745369,77.90071883776818L106.43628293890983,76.43225697170979L106.50530630328275,75.36005342645713L106.57432966765568,75.80292623120309L175.04550712559728,48.53130548002932L175.1145304899702,49.65015871653631L175.18355385434313,50.3261039409832L175.25257721871606,51.072006098654526L175.32160058308898,51.14192782456482L175.39062394746193,52.00436619208661L175.45964731183483,51.63141511325094L175.52867067620778,52.9134190435486L175.59769404058068,52.98334076945889L175.66671740495363,52.75026834975793L175.73574076932653,52.470546238802655L175.80476413369948,53.00664801142898L175.8737874980724,54.24203745778645L175.9428108624453,56.15337212859079L176.01183422681825,57.03911773808268L218.32315658742127,37.109876731829274L218.39217995179422,39.60392765920011L218.46120331616711,41.46868305337844L218.53022668054004,43.47324669206316L218.59925004491296,43.44993945009307L218.6682734092859,44.00934846468948L218.7372967736588,47.156072581851305L218.80632013803174,50.13964600522246L218.8753435024047,52.00436619208661L218.94436686677759,53.56605702602539L219.01339023115054,50.838898471639425L219.08241359552343,50.46594739280377L219.1514369598964,47.06284361397093L219.22046032426928,41.188960942423165L219.28948368864224,37.38959884278455L219.35850705301516,35.711336591681146L219.42753041738806,33.89323088875716L219.496553781761,33.939845372697334L219.5655771461339,33.80000192087678L219.63460051050686,33.4736653259813L219.70362387487975,31.8420175588181L219.7726472392527,33.77669467890669L219.8416706036256,36.83015462087397L219.91069396799855,38.20538751905201L219.97971733237148,37.97231509935105L220.0487406967444,36.76023289496368L220.11776406111733,35.75795107562132L220.18678742549025,36.130902154457004L220.25581078986318,35.33838551284549L220.32483415423607,34.102996066488004L220.39385751860902,33.80000192087678L220.46288088298195,32.68114868436979L220.53190424735487,31.795403074877896L220.6009276117278,31.329223028161863L220.66995097610072,30.560013628520437L220.73897434047365,29.697575260998633L220.80799770484657,27.646397138373743L220.8770210692195,25.828291435449756L220.94604443359242,24.779395132167195L221.01506779796534,24.219950910256642L221.0840911623383,24.056800216465973L221.1531145267112,23.68384913763029L221.22213789108412,23.68384913763029L221.29116125545704,23.870342280705216L221.36018461982997,24.056800216465973L221.4292079842029,25.595183808434655L221.4982313485758,26.900494980702405" style="fill: none;" fill="none"></path></g></g></g></g></g></g><g transform="translate(70, 178)" clip-path="url(#clip_1)"><clipPath id="clip_1"><rect width="260" height="22"></rect></clipPath><g><g><line x1="9.941619545560666" y1="0" x2="9.941619545560666" y2="5" style="visibility: inherit;" fill="rgb(0, 0, 0)" stroke="rgb(204, 204, 204)" stroke-width="1px"></line><line x1="44.45330173202317" y1="0" x2="44.45330173202317" y2="5" style="visibility: inherit;" fill="rgb(0, 0, 0)" stroke="rgb(204, 204, 204)" stroke-width="1px"></line><line x1="78.96498391848567" y1="0" x2="78.96498391848567" y2="5" style="visibility: inherit;" fill="rgb(0, 0, 0)" stroke="rgb(204, 204, 204)" stroke-width="1px"></line><line x1="113.47666610494818" y1="0" x2="113.47666610494818" y2="5" style="visibility: inherit;" fill="rgb(0, 0, 0)" stroke="rgb(204, 204, 204)" stroke-width="1px"></line><line x1="147.98834829141066" y1="0" x2="147.98834829141066" y2="5" style="visibility: inherit;" fill="rgb(0, 0, 0)" stroke="rgb(204, 204, 204)" stroke-width="1px"></line><line x1="182.50003047787317" y1="0" x2="182.50003047787317" y2="5" style="visibility: inherit;" fill="rgb(0, 0, 0)" stroke="rgb(204, 204, 204)" stroke-width="1px"></line><line x1="217.01171266433568" y1="0" x2="217.01171266433568" y2="5" style="visibility: inherit;" fill="rgb(0, 0, 0)" stroke="rgb(204, 204, 204)" stroke-width="1px"></line><line x1="251.52339485079818" y1="0" x2="251.52339485079818" y2="5" style="visibility: inherit;" fill="rgb(0, 0, 0)" stroke="rgb(204, 204, 204)" stroke-width="1px"></line></g><g transform="translate(0, 8)"><text x="9.941619545560666" y="0" dx="0em" dy="0.95em" style="text-anchor: middle; visibility: inherit; font-family: &quot;Helvetica Neue&quot;, sans-serif; font-size: 12px; font-weight: 200;" fill="rgb(50, 49, 63)" stroke="none" stroke-width="1px">1k</text><text x="44.45330173202317" y="0" dx="0em" dy="0.95em" style="text-anchor: middle; visibility: inherit; font-family: &quot;Helvetica Neue&quot;, sans-serif; font-size: 12px; font-weight: 200;" fill="rgb(50, 49, 63)" stroke="none" stroke-width="1px">1.5k</text><text x="78.96498391848567" y="0" dx="0em" dy="0.95em" style="text-anchor: middle; visibility: inherit; font-family: &quot;Helvetica Neue&quot;, sans-serif; font-size: 12px; font-weight: 200;" fill="rgb(50, 49, 63)" stroke="none" stroke-width="1px">2k</text><text x="113.47666610494818" y="0" dx="0em" dy="0.95em" style="text-anchor: middle; visibility: inherit; font-family: &quot;Helvetica Neue&quot;, sans-serif; font-size: 12px; font-weight: 200;" fill="rgb(50, 49, 63)" stroke="none" stroke-width="1px">2.5k</text><text x="147.98834829141066" y="0" dx="0em" dy="0.95em" style="text-anchor: middle; visibility: inherit; font-family: &quot;Helvetica Neue&quot;, sans-serif; font-size: 12px; font-weight: 200;" fill="rgb(50, 49, 63)" stroke="none" stroke-width="1px">3k</text><text x="182.50003047787317" y="0" dx="0em" dy="0.95em" style="text-anchor: middle; visibility: inherit; font-family: &quot;Helvetica Neue&quot;, sans-serif; font-size: 12px; font-weight: 200;" fill="rgb(50, 49, 63)" stroke="none" stroke-width="1px">3.5k</text><text x="217.01171266433568" y="0" dx="0em" dy="0.95em" style="text-anchor: middle; visibility: inherit; font-family: &quot;Helvetica Neue&quot;, sans-serif; font-size: 12px; font-weight: 200;" fill="rgb(50, 49, 63)" stroke="none" stroke-width="1px">4k</text><text x="251.52339485079818" y="0" dx="0em" dy="0.95em" style="text-anchor: middle; visibility: hidden; font-family: &quot;Helvetica Neue&quot;, sans-serif; font-size: 12px; font-weight: 200;" fill="rgb(50, 49, 63)" stroke="none" stroke-width="1px">4.5k</text></g><line x1="0" y1="0" x2="260" y2="0" fill="rgb(0, 0, 0)" stroke="rgb(204, 204, 204)" stroke-width="1px"></line></g></g></g></g></svg>