<svg viewBox="0 0 330 200" xmlns="http://www.w3.org/2000/svg"><g><g><g><g><g><line x1="70" y1="168.8470439229268" x2="65" y2="168.8470439229268" style="visibility: inherit;" fill="rgb(0, 0, 0)" stroke="rgb(204, 204, 204)" stroke-width="1px"></line><line x1="70" y1="155.86629414013203" x2="65" y2="155.86629414013203" style="visibility: inherit;" fill="rgb(0, 0, 0)" stroke="rgb(204, 204, 204)" stroke-width="1px"></line><line x1="70" y1="142.88554435733724" x2="65" y2="142.88554435733724" style="visibility: inherit;" fill="rgb(0, 0, 0)" stroke="rgb(204, 204, 204)" stroke-width="1px"></line><line x1="70" y1="129.90479457454245" x2="65" y2="129.90479457454245" style="visibility: inherit;" fill="rgb(0, 0, 0)" stroke="rgb(204, 204, 204)" stroke-width="1px"></line><line x1="70" y1="116.92404479174769" x2="65" y2="116.92404479174769" style="visibility: inherit;" fill="rgb(0, 0, 0)" stroke="rgb(204, 204, 204)" stroke-width="1px"></line><line x1="70" y1="103.94329500895299" x2="65" y2="103.94329500895299" style="visibility: inherit;" fill="rgb(0, 0, 0)" stroke="rgb(204, 204, 204)" stroke-width="1px"></line><line x1="70" y1="90.96254522615821" x2="65" y2="90.96254522615821" style="visibility: inherit;" fill="rgb(0, 0, 0)" stroke="rgb(204, 204, 204)" stroke-width="1px"></line><line x1="70" y1="77.98179544336344" x2="65" y2="77.98179544336344" style="visibility: inherit;" fill="rgb(0, 0, 0)" stroke="rgb(204, 204, 204)" stroke-width="1px"></line><line x1="70" y1="65.00104566056865" x2="65" y2="65.00104566056865" style="visibility: inherit;" fill="rgb(0, 0, 0)" stroke="rgb(204, 204, 204)" stroke-width="1px"></line><line x1="70" y1="52.020295877773876" x2="65" y2="52.020295877773876" style="visibility: inherit;" fill="rgb(0, 0, 0)" stroke="rgb(204, 204, 204)" stroke-width="1px"></line><line x1="70" y1="39.0395460949791" x2="65" y2="39.0395460949791" style="visibility: inherit;" fill="rgb(0, 0, 0)" stroke="rgb(204, 204, 204)" stroke-width="1px"></line><line x1="70" y1="26.05879631218434" x2="65" y2="26.05879631218434" style="visibility: inherit;" fill="rgb(0, 0, 0)" stroke="rgb(204, 204, 204)" stroke-width="1px"></line><line x1="70" y1="13.078046529389553" x2="65" y2="13.078046529389553" style="visibility: inherit;" fill="rgb(0, 0, 0)" stroke="rgb(204, 204, 204)" stroke-width="1px"></line><line x1="70" y1="0.09729674659484999" x2="65" y2="0.09729674659484999" style="visibility: inherit;" fill="rgb(0, 0, 0)" stroke="rgb(204, 204, 204)" stroke-width="1px"></line></g><g transform="translate(60, 0)"><text x="0" y="168.8470439229268" dx="0em" dy="0.3em" style="text-anchor: end; visibility: inherit; font-family: &quot;Helvetica Neue&quot;, sans-serif; font-size: 12px; font-weight: 200;" fill="rgb(50, 49, 63)" stroke="none" stroke-width="1px">0.046</text><text x="0" y="155.86629414013203" dx="0em" dy="0.3em" style="text-anchor: end; visibility: hidden; font-family: &quot;Helvetica Neue&quot;, sans-serif; font-size: 12px; font-weight: 200;" fill="rgb(50, 49, 63)" stroke="none" stroke-width="1px">0.047</text><text x="0" y="142.88554435733724" dx="0em" dy="0.3em" style="text-anchor: end; visibility: inherit; font-family: &quot;Helvetica Neue&quot;, sans-serif; font-size: 12px; font-weight: 200;" fill="rgb(50, 49, 63)" stroke="none" stroke-width="1px">0.048</text><text x="0" y="129.90479457454245" dx="0em" dy="0.3em" style="text-anchor: end; visibility: hidden; font-family: &quot;Helvetica Neue&quot;, sans-serif; font-size: 12px; font-weight: 200;" fill="rgb(50, 49, 63)" stroke="none" stroke-width="1px">0.049</text><text x="0" y="116.92404479174769" dx="0em" dy="0.3em" style="text-anchor: end; visibility: inherit; font-family: &quot;Helvetica Neue&quot;, sans-serif; font-size: 12px; font-weight: 200;" fill="rgb(50, 49, 63)" stroke="none" stroke-width="1px">0.05</text><text x="0" y="103.94329500895299" dx="0em" dy="0.3em" style="text-anchor: end; visibility: hidden; font-family: &quot;Helvetica Neue&quot;, sans-serif; font-size: 12px; font-weight: 200;" fill="rgb(50, 49, 63)" stroke="none" stroke-width="1px">0.051</text><text x="0" y="90.96254522615821" dx="0em" dy="0.3em" style="text-anchor: end; visibility: inherit; font-family: &quot;Helvetica Neue&quot;, sans-serif; font-size: 12px; font-weight: 200;" fill="rgb(50, 49, 63)" stroke="none" stroke-width="1px">0.052</text><text x="0" y="77.98179544336344" dx="0em" dy="0.3em" style="text-anchor: end; visibility: hidden; font-family: &quot;Helvetica Neue&quot;, sans-serif; font-size: 12px; font-weight: 200;" fill="rgb(50, 49, 63)" stroke="none" stroke-width="1px">0.053</text><text x="0" y="65.00104566056865" dx="0em" dy="0.3em" style="text-anchor: end; visibility: inherit; font-family: &quot;Helvetica Neue&quot;, sans-serif; font-size: 12px; font-weight: 200;" fill="rgb(50, 49, 63)" stroke="none" stroke-width="1px">0.054</text><text x="0" y="52.020295877773876" dx="0em" dy="0.3em" style="text-anchor: end; visibility: hidden; font-family: &quot;Helvetica Neue&quot;, sans-serif; font-size: 12px; font-weight: 200;" fill="rgb(50, 49, 63)" stroke="none" stroke-width="1px">0.055</text><text x="0" y="39.0395460949791" dx="0em" dy="0.3em" style="text-anchor: end; visibility: inherit; font-family: &quot;Helvetica Neue&quot;, sans-serif; font-size: 12px; font-weight: 200;" fill="rgb(50, 49, 63)" stroke="none" stroke-width="1px">0.056</text><text x="0" y="26.05879631218434" dx="0em" dy="0.3em" style="text-anchor: end; visibility: hidden; font-family: &quot;Helvetica Neue&quot;, sans-serif; font-size: 12px; font-weight: 200;" fill="rgb(50, 49, 63)" stroke="none" stroke-width="1px">0.057</text><text x="0" y="13.078046529389553" dx="0em" dy="0.3em" style="text-anchor: end; visibility: inherit; font-family: &quot;Helvetica Neue&quot;, sans-serif; font-size: 12px; font-weight: 200;" fill="rgb(50, 49, 63)" stroke="none" stroke-width="1px">0.058</text><text x="0" y="0.09729674659484999" dx="0em" dy="0.3em" style="text-anchor: end; visibility: hidden; font-family: &quot;Helvetica Neue&quot;, sans-serif; font-size: 12px; font-weight: 200;" fill="rgb(50, 49, 63)" stroke="none" stroke-width="1px">0.059</text></g><line x1="70" y1="0" x2="70" y2="178" fill="rgb(0, 0, 0)" stroke="rgb(204, 204, 204)" stroke-width="1px"></line></g></g><g transform="translate(70, 0)" clip-path="url(#clip_0)"><clipPath id="clip_0"><rect width="260" height="178"></rect></clipPath><g><g><g><line x1="12.761256218866782" y1="0" x2="12.761256218866782" y2="178" fill="rgb(0, 0, 0)" stroke="rgb(60, 60, 60)" stroke-width="1px" opacity="0.25"></line><line x1="42.5565566833877" y1="0" x2="42.5565566833877" y2="178" fill="rgb(0, 0, 0)" stroke="rgb(60, 60, 60)" stroke-width="1px" opacity="0.25"></line><line x1="72.3518571479086" y1="0" x2="72.3518571479086" y2="178" fill="rgb(0, 0, 0)" stroke="rgb(60, 60, 60)" stroke-width="1px" opacity="0.25"></line><line x1="102.14715761242952" y1="0" x2="102.14715761242952" y2="178" fill="rgb(0, 0, 0)" stroke="rgb(60, 60, 60)" stroke-width="1px" opacity="0.25"></line><line x1="131.94245807695043" y1="0" x2="131.94245807695043" y2="178" fill="rgb(0, 0, 0)" stroke="rgb(60, 60, 60)" stroke-width="1px" opacity="0.25"></line><line x1="161.73775854147132" y1="0" x2="161.73775854147132" y2="178" fill="rgb(0, 0, 0)" stroke="rgb(60, 60, 60)" stroke-width="1px" opacity="0.25"></line><line x1="191.53305900599224" y1="0" x2="191.53305900599224" y2="178" fill="rgb(0, 0, 0)" stroke="rgb(60, 60, 60)" stroke-width="1px" opacity="0.25"></line><line x1="221.32835947051316" y1="0" x2="221.32835947051316" y2="178" fill="rgb(0, 0, 0)" stroke="rgb(60, 60, 60)" stroke-width="1px" opacity="0.25"></line><line x1="251.12365993503408" y1="0" x2="251.12365993503408" y2="178" fill="rgb(0, 0, 0)" stroke="rgb(60, 60, 60)" stroke-width="1px" opacity="0.25"></line></g><g><line x1="0" y1="168.8470439229268" x2="260" y2="168.8470439229268" fill="rgb(0, 0, 0)" stroke="rgb(60, 60, 60)" stroke-width="1px" opacity="0.25"></line><line x1="0" y1="155.86629414013203" x2="260" y2="155.86629414013203" fill="rgb(0, 0, 0)" stroke="rgb(60, 60, 60)" stroke-width="1px" opacity="0.25"></line><line x1="0" y1="142.88554435733724" x2="260" y2="142.88554435733724" fill="rgb(0, 0, 0)" stroke="rgb(60, 60, 60)" stroke-width="1px" opacity="0.25"></line><line x1="0" y1="129.90479457454245" x2="260" y2="129.90479457454245" fill="rgb(0, 0, 0)" stroke="rgb(60, 60, 60)" stroke-width="1px" opacity="0.25"></line><line x1="0" y1="116.92404479174769" x2="260" y2="116.92404479174769" fill="rgb(0, 0, 0)" stroke="rgb(60, 60, 60)" stroke-width="1px" opacity="0.25"></line><line x1="0" y1="103.94329500895299" x2="260" y2="103.94329500895299" fill="rgb(0, 0, 0)" stroke="rgb(60, 60, 60)" stroke-width="1px" opacity="0.25"></line><line x1="0" y1="90.96254522615821" x2="260" y2="90.96254522615821" fill="rgb(0, 0, 0)" stroke="rgb(60, 60, 60)" stroke-width="1px" opacity="0.25"></line><line x1="0" y1="77.98179544336344" x2="260" y2="77.98179544336344" fill="rgb(0, 0, 0)" stroke="rgb(60, 60, 60)" stroke-width="1px" opacity="0.25"></line><line x1="0" y1="65.00104566056865" x2="260" y2="65.00104566056865" fill="rgb(0, 0, 0)" stroke="rgb(60, 60, 60)" stroke-width="1px" opacity="0.25"></line><line x1="0" y1="52.020295877773876" x2="260" y2="52.020295877773876" fill="rgb(0, 0, 0)" stroke="rgb(60, 60, 60)" stroke-width="1px" opacity="0.25"></line><line x1="0" y1="39.0395460949791" x2="260" y2="39.0395460949791" fill="rgb(0, 0, 0)" stroke="rgb(60, 60, 60)" stroke-width="1px" opacity="0.25"></line><line x1="0" y1="26.05879631218434" x2="260" y2="26.05879631218434" fill="rgb(0, 0, 0)" stroke="rgb(60, 60, 60)" stroke-width="1px" opacity="0.25"></line><line x1="0" y1="13.078046529389553" x2="260" y2="13.078046529389553" fill="rgb(0, 0, 0)" stroke="rgb(60, 60, 60)" stroke-width="1px" opacity="0.25"></line><line x1="0" y1="0.09729674659484999" x2="260" y2="0.09729674659484999" fill="rgb(0, 0, 0)" stroke="rgb(60, 60, 60)" stroke-width="1px" opacity="0.25"></line></g></g></g><g><g><line x1="0" y1="765.9615339314861" x2="260" y2="765.9615339314861" fill="rgb(0, 0, 0)" stroke="rgb(153, 153, 153)" stroke-width="1.5px"></line></g></g><g><g><line x1="-17.03404424565413" y1="0" x2="-17.03404424565413" y2="178" fill="rgb(0, 0, 0)" stroke="rgb(153, 153, 153)" stroke-width="1.5px"></line></g></g><g><g><g><g><g><path stroke="rgb(0, 119, 187)" stroke-width="2px" d="M49.23070398744038,151.6181955581592L49.29029458836942,148.0255560509439L49.34988518929847,147.7331409016703L49.40947579022751,145.89499229009647L49.469066391156545,147.7331409016703L49.52865699208559,147.52423839714544L86.17687656344631,108.38103489767697L86.23646716437536,106.37586099660568L86.2960577653044,106.12522634823709L86.35564836623344,105.2897130442601L86.41523896716248,105.12259104064022L123.71895514874264,102.28190383559195L123.7785457496717,102.24012333468698L123.83813635060073,102.15656233287703L123.89772695152978,97.01823772042268L123.95731755245882,91.04444816105259L124.01690815338786,87.2846866502174L124.0764987543169,82.0628010359531L124.13608935524594,80.14113977963052L124.19567995617498,81.39440973559601L124.25527055710403,83.19072948920366L124.31486115803307,85.36302539389484L124.3744517589621,85.53009904045348L124.43404235989115,88.5796887500266L124.4936329608202,91.04444816105259L124.55322356174923,94.38640466283805L124.61281416267828,97.10179872223263L124.67240476360732,99.85897328253218L124.73199536453636,100.81977973216284L124.7915859654654,97.97909252711459L124.85117656639444,92.79898741375526L124.91076716732348,89.33164105219365L124.97035776825253,86.741588495514L125.02994836918158,84.73641459444272L125.08953897011061,83.02360748558377L125.14912957103965,82.60585083359528L125.2087201719687,87.82773644785958L125.26831077289773,93.88513536610085L125.32790137382678,101.44639053161497L125.38749197475582,107.04425229696278L125.44708257568486,107.08603279786776L125.50667317661392,105.20615204245016L125.56626377754294,103.95288208648468L125.62585437847198,100.19316893271072L125.68544497940104,93.13318306393381L125.74503558033007,90.45956950544421L125.80462618125911,86.741588495514L125.86421678218817,83.31607099191856L125.9238073831172,82.14636203776304L125.98339798404623,81.60326388305964L185.0972741056557,57.49910642693192L185.15686470658477,56.24583647096645L185.21645530751383,54.40773621645381L185.27604590844288,53.363368765013206L185.33563650937188,52.319001313572585L185.39522711030094,51.56704901140556L185.45481771123,50.81509670923852L185.51440831215902,51.94302516248908L185.57399891308808,49.43653360761937L185.6335895140171,47.473091850391825L185.69318011494613,46.38694389804624L185.7527707158752,47.473091850391825L185.81236131680424,49.10228960037958L185.87195191773327,50.60619420471366L185.93154251866233,50.5644137038087L222.46058088816497,60.00559798180164L222.520171489094,63.3893833415533L222.57976209002302,64.4755312938989L222.63935269095208,63.13870033612346L222.6989432918811,61.92725923812419L222.75853389281016,57.123130275848396L222.81812449373922,55.53566466970439L222.87771509466825,58.334571373847666L222.93730569559727,60.59042828034879L222.99689629652633,63.2222613379334L223.0564868974554,64.35018979118396L223.1160774983844,66.7313882004L223.17566809931347,65.18570309516096L223.2352587002425,60.17267162836028L223.29484930117152,55.911640820787895L223.35443990210058,53.32158826410823L223.41403050302964,50.856877210143494L223.47362110395866,48.30860515436879L223.5332117048877,47.64016549695049L223.59280230581675,45.50965009316428L223.65239290674577,43.67154983865166L223.71198350767483,43.37913468937808L223.7715741086039,46.09452874877266L223.83116470953294,49.81250975870287L223.89075531046194,52.36078181447756L223.950345911391,54.11532106718026L224.00993651232005,53.82290591790668L224.06952711324908,53.23802726229829L224.12911771417814,52.86205111121477L224.18870831510716,51.94302516248908L224.2482989160362,50.480901059059974L224.30788951696525,50.14670540888143L224.3674801178943,48.85165495201096L224.42707071882333,46.13630924967762L224.4866613197524,41.66637593758037L224.5462519206814,39.57759267763791L224.60584252161044,38.7003472298172L224.6654331225395,39.661153679447864L224.72502372346855,40.705521130888485L224.78461432439758,41.66637593758037L224.84420492532664,41.2486192855919L224.90379552625566,42.042352088663904L224.96338612718472,42.627182387211036L225.02297672811375,44.4235021408187L225.0825673290428,43.67154983865166L225.14215792997186,43.546256692997986L225.20174853090086,43.0867195401045" style="fill: none;" fill="none"></path></g></g></g></g></g></g><g transform="translate(70, 178)" clip-path="url(#clip_1)"><clipPath id="clip_1"><rect width="260" height="22"></rect></clipPath><g><g><line x1="12.761256218866782" y1="0" x2="12.761256218866782" y2="5" style="visibility: inherit;" fill="rgb(0, 0, 0)" stroke="rgb(204, 204, 204)" stroke-width="1px"></line><line x1="42.5565566833877" y1="0" x2="42.5565566833877" y2="5" style="visibility: inherit;" fill="rgb(0, 0, 0)" stroke="rgb(204, 204, 204)" stroke-width="1px"></line><line x1="72.3518571479086" y1="0" x2="72.3518571479086" y2="5" style="visibility: inherit;" fill="rgb(0, 0, 0)" stroke="rgb(204, 204, 204)" stroke-width="1px"></line><line x1="102.14715761242952" y1="0" x2="102.14715761242952" y2="5" style="visibility: inherit;" fill="rgb(0, 0, 0)" stroke="rgb(204, 204, 204)" stroke-width="1px"></line><line x1="131.94245807695043" y1="0" x2="131.94245807695043" y2="5" style="visibility: inherit;" fill="rgb(0, 0, 0)" stroke="rgb(204, 204, 204)" stroke-width="1px"></line><line x1="161.73775854147132" y1="0" x2="161.73775854147132" y2="5" style="visibility: inherit;" fill="rgb(0, 0, 0)" stroke="rgb(204, 204, 204)" stroke-width="1px"></line><line x1="191.53305900599224" y1="0" x2="191.53305900599224" y2="5" style="visibility: inherit;" fill="rgb(0, 0, 0)" stroke="rgb(204, 204, 204)" stroke-width="1px"></line><line x1="221.32835947051316" y1="0" x2="221.32835947051316" y2="5" style="visibility: inherit;" fill="rgb(0, 0, 0)" stroke="rgb(204, 204, 204)" stroke-width="1px"></line><line x1="251.12365993503408" y1="0" x2="251.12365993503408" y2="5" style="visibility: inherit;" fill="rgb(0, 0, 0)" stroke="rgb(204, 204, 204)" stroke-width="1px"></line></g><g transform="translate(0, 8)"><text x="12.761256218866782" y="0" dx="0em" dy="0.95em" style="text-anchor: middle; visibility: inherit; font-family: &quot;Helvetica Neue&quot;, sans-serif; font-size: 12px; font-weight: 200;" fill="rgb(50, 49, 63)" stroke="none" stroke-width="1px">500</text><text x="42.5565566833877" y="0" dx="0em" dy="0.95em" style="text-anchor: middle; visibility: inherit; font-family: &quot;Helvetica Neue&quot;, sans-serif; font-size: 12px; font-weight: 200;" fill="rgb(50, 49, 63)" stroke="none" stroke-width="1px">1k</text><text x="72.3518571479086" y="0" dx="0em" dy="0.95em" style="text-anchor: middle; visibility: inherit; font-family: &quot;Helvetica Neue&quot;, sans-serif; font-size: 12px; font-weight: 200;" fill="rgb(50, 49, 63)" stroke="none" stroke-width="1px">1.5k</text><text x="102.14715761242952" y="0" dx="0em" dy="0.95em" style="text-anchor: middle; visibility: inherit; font-family: &quot;Helvetica Neue&quot;, sans-serif; font-size: 12px; font-weight: 200;" fill="rgb(50, 49, 63)" stroke="none" stroke-width="1px">2k</text><text x="131.94245807695043" y="0" dx="0em" dy="0.95em" style="text-anchor: middle; visibility: inherit; font-family: &quot;Helvetica Neue&quot;, sans-serif; font-size: 12px; font-weight: 200;" fill="rgb(50, 49, 63)" stroke="none" stroke-width="1px">2.5k</text><text x="161.73775854147132" y="0" dx="0em" dy="0.95em" style="text-anchor: middle; visibility: inherit; font-family: &quot;Helvetica Neue&quot;, sans-serif; font-size: 12px; font-weight: 200;" fill="rgb(50, 49, 63)" stroke="none" stroke-width="1px">3k</text><text x="191.53305900599224" y="0" dx="0em" dy="0.95em" style="text-anchor: middle; visibility: inherit; font-family: &quot;Helvetica Neue&quot;, sans-serif; font-size: 12px; font-weight: 200;" fill="rgb(50, 49, 63)" stroke="none" stroke-width="1px">3.5k</text><text x="221.32835947051316" y="0" dx="0em" dy="0.95em" style="text-anchor: middle; visibility: inherit; font-family: &quot;Helvetica Neue&quot;, sans-serif; font-size: 12px; font-weight: 200;" fill="rgb(50, 49, 63)" stroke="none" stroke-width="1px">4k</text><text x="251.12365993503408" y="0" dx="0em" dy="0.95em" style="text-anchor: middle; visibility: hidden; font-family: &quot;Helvetica Neue&quot;, sans-serif; font-size: 12px; font-weight: 200;" fill="rgb(50, 49, 63)" stroke="none" stroke-width="1px">4.5k</text></g><line x1="0" y1="0" x2="260" y2="0" fill="rgb(0, 0, 0)" stroke="rgb(204, 204, 204)" stroke-width="1px"></line></g></g></g></g></svg>