<svg viewBox="0 0 330 200" xmlns="http://www.w3.org/2000/svg"><g><g><g><g><g><line x1="70" y1="178" x2="65" y2="178" style="visibility: inherit;" fill="rgb(0, 0, 0)" stroke="rgb(204, 204, 204)" stroke-width="1px"></line><line x1="70" y1="161.8181818181818" x2="65" y2="161.8181818181818" style="visibility: inherit;" fill="rgb(0, 0, 0)" stroke="rgb(204, 204, 204)" stroke-width="1px"></line><line x1="70" y1="145.63636363636368" x2="65" y2="145.63636363636368" style="visibility: inherit;" fill="rgb(0, 0, 0)" stroke="rgb(204, 204, 204)" stroke-width="1px"></line><line x1="70" y1="129.4545454545455" x2="65" y2="129.4545454545455" style="visibility: inherit;" fill="rgb(0, 0, 0)" stroke="rgb(204, 204, 204)" stroke-width="1px"></line><line x1="70" y1="113.2727272727273" x2="65" y2="113.2727272727273" style="visibility: inherit;" fill="rgb(0, 0, 0)" stroke="rgb(204, 204, 204)" stroke-width="1px"></line><line x1="70" y1="97.09090909090911" x2="65" y2="97.09090909090911" style="visibility: inherit;" fill="rgb(0, 0, 0)" stroke="rgb(204, 204, 204)" stroke-width="1px"></line><line x1="70" y1="80.90909090909089" x2="65" y2="80.90909090909089" style="visibility: inherit;" fill="rgb(0, 0, 0)" stroke="rgb(204, 204, 204)" stroke-width="1px"></line><line x1="70" y1="64.7272727272727" x2="65" y2="64.7272727272727" style="visibility: inherit;" fill="rgb(0, 0, 0)" stroke="rgb(204, 204, 204)" stroke-width="1px"></line><line x1="70" y1="48.54545454545459" x2="65" y2="48.54545454545459" style="visibility: inherit;" fill="rgb(0, 0, 0)" stroke="rgb(204, 204, 204)" stroke-width="1px"></line><line x1="70" y1="32.3636363636364" x2="65" y2="32.3636363636364" style="visibility: inherit;" fill="rgb(0, 0, 0)" stroke="rgb(204, 204, 204)" stroke-width="1px"></line><line x1="70" y1="16.181818181818215" x2="65" y2="16.181818181818215" style="visibility: inherit;" fill="rgb(0, 0, 0)" stroke="rgb(204, 204, 204)" stroke-width="1px"></line><line x1="70" y1="0" x2="65" y2="0" style="visibility: inherit;" fill="rgb(0, 0, 0)" stroke="rgb(204, 204, 204)" stroke-width="1px"></line></g><g transform="translate(60, 0)"><text x="0" y="178" dx="0em" dy="0.3em" style="text-anchor: end; visibility: hidden; font-family: &quot;Helvetica Neue&quot;, sans-serif; font-size: 12px; font-weight: 200;" fill="rgb(50, 49, 63)" stroke="none" stroke-width="1px">0.135</text><text x="0" y="161.8181818181818" dx="0em" dy="0.3em" style="text-anchor: end; visibility: inherit; font-family: &quot;Helvetica Neue&quot;, sans-serif; font-size: 12px; font-weight: 200;" fill="rgb(50, 49, 63)" stroke="none" stroke-width="1px">0.14</text><text x="0" y="145.63636363636368" dx="0em" dy="0.3em" style="text-anchor: end; visibility: hidden; font-family: &quot;Helvetica Neue&quot;, sans-serif; font-size: 12px; font-weight: 200;" fill="rgb(50, 49, 63)" stroke="none" stroke-width="1px">0.145</text><text x="0" y="129.4545454545455" dx="0em" dy="0.3em" style="text-anchor: end; visibility: inherit; font-family: &quot;Helvetica Neue&quot;, sans-serif; font-size: 12px; font-weight: 200;" fill="rgb(50, 49, 63)" stroke="none" stroke-width="1px">0.15</text><text x="0" y="113.2727272727273" dx="0em" dy="0.3em" style="text-anchor: end; visibility: hidden; font-family: &quot;Helvetica Neue&quot;, sans-serif; font-size: 12px; font-weight: 200;" fill="rgb(50, 49, 63)" stroke="none" stroke-width="1px">0.155</text><text x="0" y="97.09090909090911" dx="0em" dy="0.3em" style="text-anchor: end; visibility: inherit; font-family: &quot;Helvetica Neue&quot;, sans-serif; font-size: 12px; font-weight: 200;" fill="rgb(50, 49, 63)" stroke="none" stroke-width="1px">0.16</text><text x="0" y="80.90909090909089" dx="0em" dy="0.3em" style="text-anchor: end; visibility: hidden; font-family: &quot;Helvetica Neue&quot;, sans-serif; font-size: 12px; font-weight: 200;" fill="rgb(50, 49, 63)" stroke="none" stroke-width="1px">0.165</text><text x="0" y="64.7272727272727" dx="0em" dy="0.3em" style="text-anchor: end; visibility: inherit; font-family: &quot;Helvetica Neue&quot;, sans-serif; font-size: 12px; font-weight: 200;" fill="rgb(50, 49, 63)" stroke="none" stroke-width="1px">0.17</text><text x="0" y="48.54545454545459" dx="0em" dy="0.3em" style="text-anchor: end; visibility: hidden; font-family: &quot;Helvetica Neue&quot;, sans-serif; font-size: 12px; font-weight: 200;" fill="rgb(50, 49, 63)" stroke="none" stroke-width="1px">0.175</text><text x="0" y="32.3636363636364" dx="0em" dy="0.3em" style="text-anchor: end; visibility: inherit; font-family: &quot;Helvetica Neue&quot;, sans-serif; font-size: 12px; font-weight: 200;" fill="rgb(50, 49, 63)" stroke="none" stroke-width="1px">0.18</text><text x="0" y="16.181818181818215" dx="0em" dy="0.3em" style="text-anchor: end; visibility: hidden; font-family: &quot;Helvetica Neue&quot;, sans-serif; font-size: 12px; font-weight: 200;" fill="rgb(50, 49, 63)" stroke="none" stroke-width="1px">0.185</text><text x="0" y="0" dx="0em" dy="0.3em" style="text-anchor: end; visibility: hidden; font-family: &quot;Helvetica Neue&quot;, sans-serif; font-size: 12px; font-weight: 200;" fill="rgb(50, 49, 63)" stroke="none" stroke-width="1px">0.19</text></g><line x1="70" y1="0" x2="70" y2="178" fill="rgb(0, 0, 0)" stroke="rgb(204, 204, 204)" stroke-width="1px"></line></g></g><g transform="translate(70, 0)" clip-path="url(#clip_0)"><clipPath id="clip_0"><rect width="260" height="178"></rect></clipPath><g><g><g><line x1="0" y1="0" x2="0" y2="178" fill="rgb(0, 0, 0)" stroke="rgb(60, 60, 60)" stroke-width="1px" opacity="0.25"></line><line x1="37.14285714285714" y1="0" x2="37.14285714285714" y2="178" fill="rgb(0, 0, 0)" stroke="rgb(60, 60, 60)" stroke-width="1px" opacity="0.25"></line><line x1="74.28571428571428" y1="0" x2="74.28571428571428" y2="178" fill="rgb(0, 0, 0)" stroke="rgb(60, 60, 60)" stroke-width="1px" opacity="0.25"></line><line x1="111.42857142857142" y1="0" x2="111.42857142857142" y2="178" fill="rgb(0, 0, 0)" stroke="rgb(60, 60, 60)" stroke-width="1px" opacity="0.25"></line><line x1="148.57142857142856" y1="0" x2="148.57142857142856" y2="178" fill="rgb(0, 0, 0)" stroke="rgb(60, 60, 60)" stroke-width="1px" opacity="0.25"></line><line x1="185.71428571428572" y1="0" x2="185.71428571428572" y2="178" fill="rgb(0, 0, 0)" stroke="rgb(60, 60, 60)" stroke-width="1px" opacity="0.25"></line><line x1="222.85714285714283" y1="0" x2="222.85714285714283" y2="178" fill="rgb(0, 0, 0)" stroke="rgb(60, 60, 60)" stroke-width="1px" opacity="0.25"></line><line x1="260" y1="0" x2="260" y2="178" fill="rgb(0, 0, 0)" stroke="rgb(60, 60, 60)" stroke-width="1px" opacity="0.25"></line></g><g><line x1="0" y1="178" x2="260" y2="178" fill="rgb(0, 0, 0)" stroke="rgb(60, 60, 60)" stroke-width="1px" opacity="0.25"></line><line x1="0" y1="161.8181818181818" x2="260" y2="161.8181818181818" fill="rgb(0, 0, 0)" stroke="rgb(60, 60, 60)" stroke-width="1px" opacity="0.25"></line><line x1="0" y1="145.63636363636368" x2="260" y2="145.63636363636368" fill="rgb(0, 0, 0)" stroke="rgb(60, 60, 60)" stroke-width="1px" opacity="0.25"></line><line x1="0" y1="129.4545454545455" x2="260" y2="129.4545454545455" fill="rgb(0, 0, 0)" stroke="rgb(60, 60, 60)" stroke-width="1px" opacity="0.25"></line><line x1="0" y1="113.2727272727273" x2="260" y2="113.2727272727273" fill="rgb(0, 0, 0)" stroke="rgb(60, 60, 60)" stroke-width="1px" opacity="0.25"></line><line x1="0" y1="97.09090909090911" x2="260" y2="97.09090909090911" fill="rgb(0, 0, 0)" stroke="rgb(60, 60, 60)" stroke-width="1px" opacity="0.25"></line><line x1="0" y1="80.90909090909089" x2="260" y2="80.90909090909089" fill="rgb(0, 0, 0)" stroke="rgb(60, 60, 60)" stroke-width="1px" opacity="0.25"></line><line x1="0" y1="64.7272727272727" x2="260" y2="64.7272727272727" fill="rgb(0, 0, 0)" stroke="rgb(60, 60, 60)" stroke-width="1px" opacity="0.25"></line><line x1="0" y1="48.54545454545459" x2="260" y2="48.54545454545459" fill="rgb(0, 0, 0)" stroke="rgb(60, 60, 60)" stroke-width="1px" opacity="0.25"></line><line x1="0" y1="32.3636363636364" x2="260" y2="32.3636363636364" fill="rgb(0, 0, 0)" stroke="rgb(60, 60, 60)" stroke-width="1px" opacity="0.25"></line><line x1="0" y1="16.181818181818215" x2="260" y2="16.181818181818215" fill="rgb(0, 0, 0)" stroke="rgb(60, 60, 60)" stroke-width="1px" opacity="0.25"></line><line x1="0" y1="0" x2="260" y2="0" fill="rgb(0, 0, 0)" stroke="rgb(60, 60, 60)" stroke-width="1px" opacity="0.25"></line></g></g></g><g><g><line x1="0" y1="614.909090909091" x2="260" y2="614.909090909091" fill="rgb(0, 0, 0)" stroke="rgb(153, 153, 153)" stroke-width="1.5px"></line></g></g><g><g><line x1="-74.28571428571428" y1="0" x2="-74.28571428571428" y2="178" fill="rgb(0, 0, 0)" stroke="rgb(153, 153, 153)" stroke-width="1.5px"></line></g></g><g><g><g><g><g><path stroke="rgb(0, 119, 187)" stroke-width="2px" d="M8.32,158.1639350761067L8.394285714285715,157.5117348620926L8.468571428571428,157.04511398275272L8.542857142857143,156.45069387711678L8.617142857142856,156.5401380301989L8.69142857142857,156.92228560118485L54.37714285714286,143.40745498771537L54.45142857142857,134.00584756032288L54.52571428571429,127.41647203370681L54.6,122.7501559799069L54.674285714285716,119.72439949457825L101.17714285714285,115.38775286932217L101.25142857142856,112.85655258819756L101.3257142857143,110.85677459115381L101.4,107.85514459439736L101.47428571428571,102.77178054831647L101.54857142857142,98.11205169453069L101.62285714285714,93.62147121900672L101.69714285714285,89.91232070481733L101.77142857142856,86.91197716329225L101.8457142857143,85.11036814296205L101.92,84.41989358141842L101.99428571428571,84.18129515867491L102.06857142857143,84.85097109061681L102.14285714285714,85.93268766469477L102.21714285714285,87.2813203778236L102.29142857142857,89.13606162429323L102.36571428571429,90.90743928889243L102.44,92.40408146296637L102.51428571428572,92.72007783234226L102.58857142857143,92.07576945764539L102.66285714285713,90.6950216147568L102.73714285714286,89.28221167568309L102.81142857142856,87.73126437681402L102.88571428571429,86.71184555164362L102.96000000000001,86.70865534299352L103.03428571428572,88.92989011160292L103.10857142857142,92.88174392607728L103.18285714285715,98.22376916957305L103.25714285714285,103.69417283786814L103.33142857142856,107.711083757461L103.40571428571428,109.65390855329723L103.48,110.01022081137411L103.55428571428571,108.69885031452003L103.62857142857143,104.74026225007076L103.70285714285714,100.15041843410138L103.77714285714285,95.6112344726186L103.85142857142857,91.24441269480553L103.92571428571428,87.91472064221944L104,85.322464870477L177.69142857142856,73.16744352558928L177.7657142857143,64.53890198478162L177.84,58.19936551898718L177.9142857142857,53.88545004710814L177.98857142857145,50.738191833234666L178.06285714285713,48.433663087657095L178.13714285714286,46.58744859771241L178.21142857142857,45.72207137771005L178.28571428571428,44.56541979813895L178.36,43.46604901038779L178.43428571428572,42.4995459905239L178.50857142857143,41.97741065101931L178.58285714285714,42.17475066970883L178.65714285714287,42.637091882156994L178.73142857142855,43.08246002556831L224.26857142857142,42.34140349432863L224.34285714285716,42.68456774265218L224.41714285714284,43.43188958948858L224.49142857142857,44.47020777550773L224.5657142857143,45.169920659916016L224.64,45.76935290643692L224.71428571428572,46.651873416826305L224.78857142857143,48.40134535199704L224.86285714285714,50.797017417683946L224.93714285714285,54.40503815027358L225.01142857142858,57.68959177158547L225.0857142857143,60.92453225672719L225.16,62.78868244558872L225.23428571428573,62.35650317306434L225.3085714285714,59.98728009248107L225.38285714285715,57.54630574162864L225.45714285714286,54.56347787437758L225.53142857142856,51.38150411689962L225.60571428571427,48.646950088225026L225.68,46.2899592338282L225.75428571428571,44.025445158805866L225.82857142857142,42.20194329903339L225.90285714285716,41.42607120714766L225.97714285714284,42.047615124943036L226.05142857142857,43.348714713793754L226.12571428571428,44.721530653698096L226.2,45.59744726179002L226.27428571428572,46.09321028825184L226.34857142857143,45.84588467665131L226.42285714285714,45.350578736682905L226.49714285714285,44.80351705097445L226.57142857142858,43.909881333536674L226.64571428571426,43.07476437716505L226.72,41.60954516240045L226.79428571428573,39.52067827968037L226.8685714285714,37.06174689004405L226.94285714285715,34.621025578952015L227.01714285714286,32.58295256154028L227.09142857142857,30.6469113268773L227.16571428571427,29.377589462259806L227.24,28.79105627702961L227.31428571428572,28.468597954892914L227.38857142857142,28.469578353325318L227.46285714285716,28.76506969937185L227.53714285714284,29.037848772819956L227.61142857142858,29.5199024035351L227.68571428571428,29.816707664387593" style="fill: none;" fill="none"></path></g></g></g></g><g opacity="0.2"><g><g><g><path stroke="rgb(0, 119, 187)" stroke-width="2px" d="M8.32,158.1639350761067L8.394285714285715,157.0473683097146L8.468571428571428,156.47632926160642L8.542857142857143,155.51157660917806L8.617142857142856,156.70443623716184L8.69142857142857,157.69416973807597L54.37714285714286,114.34868424588987L54.45142857142857,112.9189888130535L54.52571428571429,112.20197094570509L54.6,111.75646307251672L54.674285714285716,112.49450729110026L101.17714285714285,104.92217553745618L101.25142857142856,106.70507509058174L101.3257142857143,105.97262503884058L101.4,100.49829875339164L101.47428571428571,90.28156575289641L101.54857142857142,86.64241554520349L101.62285714285714,82.55423699725759L101.69714285714285,80.76275329156357L101.77142857142856,79.50613945180721L101.8457142857143,80.66138313033366L101.92,82.71424945917998L101.99428571428571,83.59176204421306L102.06857142857143,86.50588893890382L102.14285714285714,88.60616100918163L102.21714285714285,90.61475625905125L102.29142857142857,93.72072449597447L102.36571428571429,95.28622315146708L102.44,96.10383957082577L102.51428571428572,93.50124989856376L102.58857142857143,90.48295575922187L102.66285714285713,87.28159733252095L102.73714285714286,85.78949800404638L102.81142857142856,83.89702994173224L102.88571428571429,84.1916399869052L102.96000000000001,86.7007684924386L103.03428571428572,94.42124921625312L103.10857142857142,102.65157073194332L103.18285714285715,111.43040995164353L103.25714285714285,117.21820248257032L103.33142857142856,117.64176771857524L103.40571428571428,114.45699889009651L103.48,110.89110333269295L103.55428571428571,105.45685250108895L103.62857142857143,94.95375602895565L103.70285714285714,88.8033071647991L103.77714285714285,84.38936484943737L103.85142857142857,80.44866011359477L103.92571428571428,79.68298263983296L104,78.91383292458276L177.69142857142856,43.117530909451574L177.7657142857143,43.20723048123446L177.84,42.52662292393771L177.9142857142857,43.220492514696986L177.98857142857145,42.957470221952974L178.06285714285713,42.73635595495051L178.13714285714286,42.02319613370028L178.21142857142857,43.582666592164486L178.28571428571428,41.705920067700475L178.36,40.7481601238251L178.43428571428572,40.11013575033709L178.50857142857143,40.68657606298274L178.58285714285714,42.662619048898875L178.65714285714287,43.780102101239294L178.73142857142855,44.183509046381175L224.26857142857142,40.50934707034719L224.34285714285716,43.53294602307406L224.41714285714284,45.27943526614797L224.49142857142857,47.037161068482845L224.5657142857143,46.89976640181109L224.64,47.25128262693232L224.71428571428572,48.833660234104514L224.78857142857143,52.72642874717714L224.86285714285714,56.71965113553135L224.93714285714285,63.32486718351191L225.01142857142858,65.80973822420295L225.0857142857143,68.92202401161195L225.16,67.39727596803147L225.23428571428573,61.288059971549316L225.3085714285714,54.130034143274486L225.38285714285715,51.511674707586124L225.45714285714286,47.18926453590396L225.53142857142856,43.51495788314128L225.60571428571427,41.88652485067195L225.68,40.462954066016465L225.75428571428571,38.42706314000216L225.82857142857142,37.69384147904137L225.90285714285716,39.50794297998604L225.97714285714284,43.58420981060377L226.05142857142857,46.56532203067434L226.12571428571428,48.11543672735041L226.2,47.7629077651284L226.27428571428572,47.318846659226864L226.34857142857143,45.23444080352786L226.42285714285714,44.1260723850944L226.49714285714285,43.45105899464002L226.57142857142858,41.700615254315466L226.64571428571426,41.01016967946833L226.72,37.98719765923241L226.79428571428573,34.3565351529555L226.8685714285714,30.982722065665513L226.94285714285715,28.58702011541888L227.01714285714286,27.544383157383322L227.09142857142857,25.860587163405L227.16571428571427,26.239543741399615L227.24,27.34101590243253L227.31428571428572,27.671409325166195L227.38857142857142,28.472002116116613L227.46285714285716,29.495589971542387L227.53714285714284,29.712219259955674L227.61142857142858,30.711646101691514L227.68571428571428,30.55047622593966" style="fill: none;" fill="none"></path></g></g></g></g></g></g><g transform="translate(70, 178)" clip-path="url(#clip_1)"><clipPath id="clip_1"><rect width="260" height="22"></rect></clipPath><g><g><line x1="0" y1="0" x2="0" y2="5" style="visibility: inherit;" fill="rgb(0, 0, 0)" stroke="rgb(204, 204, 204)" stroke-width="1px"></line><line x1="37.14285714285714" y1="0" x2="37.14285714285714" y2="5" style="visibility: inherit;" fill="rgb(0, 0, 0)" stroke="rgb(204, 204, 204)" stroke-width="1px"></line><line x1="74.28571428571428" y1="0" x2="74.28571428571428" y2="5" style="visibility: inherit;" fill="rgb(0, 0, 0)" stroke="rgb(204, 204, 204)" stroke-width="1px"></line><line x1="111.42857142857142" y1="0" x2="111.42857142857142" y2="5" style="visibility: inherit;" fill="rgb(0, 0, 0)" stroke="rgb(204, 204, 204)" stroke-width="1px"></line><line x1="148.57142857142856" y1="0" x2="148.57142857142856" y2="5" style="visibility: inherit;" fill="rgb(0, 0, 0)" stroke="rgb(204, 204, 204)" stroke-width="1px"></line><line x1="185.71428571428572" y1="0" x2="185.71428571428572" y2="5" style="visibility: inherit;" fill="rgb(0, 0, 0)" stroke="rgb(204, 204, 204)" stroke-width="1px"></line><line x1="222.85714285714283" y1="0" x2="222.85714285714283" y2="5" style="visibility: inherit;" fill="rgb(0, 0, 0)" stroke="rgb(204, 204, 204)" stroke-width="1px"></line><line x1="260" y1="0" x2="260" y2="5" style="visibility: inherit;" fill="rgb(0, 0, 0)" stroke="rgb(204, 204, 204)" stroke-width="1px"></line></g><g transform="translate(0, 8)"><text x="0" y="0" dx="0em" dy="0.95em" style="text-anchor: middle; visibility: hidden; font-family: &quot;Helvetica Neue&quot;, sans-serif; font-size: 12px; font-weight: 200;" fill="rgb(50, 49, 63)" stroke="none" stroke-width="1px">1k</text><text x="37.14285714285714" y="0" dx="0em" dy="0.95em" style="text-anchor: middle; visibility: inherit; font-family: &quot;Helvetica Neue&quot;, sans-serif; font-size: 12px; font-weight: 200;" fill="rgb(50, 49, 63)" stroke="none" stroke-width="1px">1.5k</text><text x="74.28571428571428" y="0" dx="0em" dy="0.95em" style="text-anchor: middle; visibility: inherit; font-family: &quot;Helvetica Neue&quot;, sans-serif; font-size: 12px; font-weight: 200;" fill="rgb(50, 49, 63)" stroke="none" stroke-width="1px">2k</text><text x="111.42857142857142" y="0" dx="0em" dy="0.95em" style="text-anchor: middle; visibility: inherit; font-family: &quot;Helvetica Neue&quot;, sans-serif; font-size: 12px; font-weight: 200;" fill="rgb(50, 49, 63)" stroke="none" stroke-width="1px">2.5k</text><text x="148.57142857142856" y="0" dx="0em" dy="0.95em" style="text-anchor: middle; visibility: inherit; font-family: &quot;Helvetica Neue&quot;, sans-serif; font-size: 12px; font-weight: 200;" fill="rgb(50, 49, 63)" stroke="none" stroke-width="1px">3k</text><text x="185.71428571428572" y="0" dx="0em" dy="0.95em" style="text-anchor: middle; visibility: inherit; font-family: &quot;Helvetica Neue&quot;, sans-serif; font-size: 12px; font-weight: 200;" fill="rgb(50, 49, 63)" stroke="none" stroke-width="1px">3.5k</text><text x="222.85714285714283" y="0" dx="0em" dy="0.95em" style="text-anchor: middle; visibility: inherit; font-family: &quot;Helvetica Neue&quot;, sans-serif; font-size: 12px; font-weight: 200;" fill="rgb(50, 49, 63)" stroke="none" stroke-width="1px">4k</text><text x="260" y="0" dx="0em" dy="0.95em" style="text-anchor: middle; visibility: hidden; font-family: &quot;Helvetica Neue&quot;, sans-serif; font-size: 12px; font-weight: 200;" fill="rgb(50, 49, 63)" stroke="none" stroke-width="1px">4.5k</text></g><line x1="0" y1="0" x2="260" y2="0" fill="rgb(0, 0, 0)" stroke="rgb(204, 204, 204)" stroke-width="1px"></line></g></g></g></g></svg>