<svg viewBox="0 0 330 200" xmlns="http://www.w3.org/2000/svg"><g><g><g><g><g><line x1="58" y1="158.22222222222243" x2="53" y2="158.22222222222243" style="visibility: inherit;" fill="rgb(0, 0, 0)" stroke="rgb(204, 204, 204)" stroke-width="1px"></line><line x1="58" y1="138.44444444444463" x2="53" y2="138.44444444444463" style="visibility: inherit;" fill="rgb(0, 0, 0)" stroke="rgb(204, 204, 204)" stroke-width="1px"></line><line x1="58" y1="118.6666666666668" x2="53" y2="118.6666666666668" style="visibility: inherit;" fill="rgb(0, 0, 0)" stroke="rgb(204, 204, 204)" stroke-width="1px"></line><line x1="58" y1="98.88888888888901" x2="53" y2="98.88888888888901" style="visibility: inherit;" fill="rgb(0, 0, 0)" stroke="rgb(204, 204, 204)" stroke-width="1px"></line><line x1="58" y1="79.1111111111112" x2="53" y2="79.1111111111112" style="visibility: inherit;" fill="rgb(0, 0, 0)" stroke="rgb(204, 204, 204)" stroke-width="1px"></line><line x1="58" y1="59.3333333333334" x2="53" y2="59.3333333333334" style="visibility: inherit;" fill="rgb(0, 0, 0)" stroke="rgb(204, 204, 204)" stroke-width="1px"></line><line x1="58" y1="39.5555555555556" x2="53" y2="39.5555555555556" style="visibility: inherit;" fill="rgb(0, 0, 0)" stroke="rgb(204, 204, 204)" stroke-width="1px"></line><line x1="58" y1="19.7777777777778" x2="53" y2="19.7777777777778" style="visibility: inherit;" fill="rgb(0, 0, 0)" stroke="rgb(204, 204, 204)" stroke-width="1px"></line><line x1="58" y1="0" x2="53" y2="0" style="visibility: inherit;" fill="rgb(0, 0, 0)" stroke="rgb(204, 204, 204)" stroke-width="1px"></line></g><g transform="translate(48, 0)"><text x="0" y="158.22222222222243" dx="0em" dy="0.3em" style="text-anchor: end; visibility: inherit; font-family: &quot;Helvetica Neue&quot;, sans-serif; font-size: 12px; font-weight: 200;" fill="rgb(50, 49, 63)" stroke="none" stroke-width="1px">0.57</text><text x="0" y="138.44444444444463" dx="0em" dy="0.3em" style="text-anchor: end; visibility: hidden; font-family: &quot;Helvetica Neue&quot;, sans-serif; font-size: 12px; font-weight: 200;" fill="rgb(50, 49, 63)" stroke="none" stroke-width="1px">0.58</text><text x="0" y="118.6666666666668" dx="0em" dy="0.3em" style="text-anchor: end; visibility: inherit; font-family: &quot;Helvetica Neue&quot;, sans-serif; font-size: 12px; font-weight: 200;" fill="rgb(50, 49, 63)" stroke="none" stroke-width="1px">0.59</text><text x="0" y="98.88888888888901" dx="0em" dy="0.3em" style="text-anchor: end; visibility: hidden; font-family: &quot;Helvetica Neue&quot;, sans-serif; font-size: 12px; font-weight: 200;" fill="rgb(50, 49, 63)" stroke="none" stroke-width="1px">0.6</text><text x="0" y="79.1111111111112" dx="0em" dy="0.3em" style="text-anchor: end; visibility: inherit; font-family: &quot;Helvetica Neue&quot;, sans-serif; font-size: 12px; font-weight: 200;" fill="rgb(50, 49, 63)" stroke="none" stroke-width="1px">0.61</text><text x="0" y="59.3333333333334" dx="0em" dy="0.3em" style="text-anchor: end; visibility: hidden; font-family: &quot;Helvetica Neue&quot;, sans-serif; font-size: 12px; font-weight: 200;" fill="rgb(50, 49, 63)" stroke="none" stroke-width="1px">0.62</text><text x="0" y="39.5555555555556" dx="0em" dy="0.3em" style="text-anchor: end; visibility: inherit; font-family: &quot;Helvetica Neue&quot;, sans-serif; font-size: 12px; font-weight: 200;" fill="rgb(50, 49, 63)" stroke="none" stroke-width="1px">0.63</text><text x="0" y="19.7777777777778" dx="0em" dy="0.3em" style="text-anchor: end; visibility: hidden; font-family: &quot;Helvetica Neue&quot;, sans-serif; font-size: 12px; font-weight: 200;" fill="rgb(50, 49, 63)" stroke="none" stroke-width="1px">0.64</text><text x="0" y="0" dx="0em" dy="0.3em" style="text-anchor: end; visibility: hidden; font-family: &quot;Helvetica Neue&quot;, sans-serif; font-size: 12px; font-weight: 200;" fill="rgb(50, 49, 63)" stroke="none" stroke-width="1px">0.65</text></g><line x1="58" y1="0" x2="58" y2="178" fill="rgb(0, 0, 0)" stroke="rgb(204, 204, 204)" stroke-width="1px"></line></g></g><g transform="translate(58, 0)" clip-path="url(#clip_0)"><clipPath id="clip_0"><rect width="272" height="178"></rect></clipPath><g><g><g><line x1="0" y1="0" x2="0" y2="178" fill="rgb(0, 0, 0)" stroke="rgb(60, 60, 60)" stroke-width="1px" opacity="0.25"></line><line x1="38.857142857142854" y1="0" x2="38.857142857142854" y2="178" fill="rgb(0, 0, 0)" stroke="rgb(60, 60, 60)" stroke-width="1px" opacity="0.25"></line><line x1="77.71428571428571" y1="0" x2="77.71428571428571" y2="178" fill="rgb(0, 0, 0)" stroke="rgb(60, 60, 60)" stroke-width="1px" opacity="0.25"></line><line x1="116.57142857142857" y1="0" x2="116.57142857142857" y2="178" fill="rgb(0, 0, 0)" stroke="rgb(60, 60, 60)" stroke-width="1px" opacity="0.25"></line><line x1="155.42857142857142" y1="0" x2="155.42857142857142" y2="178" fill="rgb(0, 0, 0)" stroke="rgb(60, 60, 60)" stroke-width="1px" opacity="0.25"></line><line x1="194.28571428571428" y1="0" x2="194.28571428571428" y2="178" fill="rgb(0, 0, 0)" stroke="rgb(60, 60, 60)" stroke-width="1px" opacity="0.25"></line><line x1="233.14285714285714" y1="0" x2="233.14285714285714" y2="178" fill="rgb(0, 0, 0)" stroke="rgb(60, 60, 60)" stroke-width="1px" opacity="0.25"></line><line x1="272" y1="0" x2="272" y2="178" fill="rgb(0, 0, 0)" stroke="rgb(60, 60, 60)" stroke-width="1px" opacity="0.25"></line></g><g><line x1="0" y1="158.22222222222243" x2="272" y2="158.22222222222243" fill="rgb(0, 0, 0)" stroke="rgb(60, 60, 60)" stroke-width="1px" opacity="0.25"></line><line x1="0" y1="138.44444444444463" x2="272" y2="138.44444444444463" fill="rgb(0, 0, 0)" stroke="rgb(60, 60, 60)" stroke-width="1px" opacity="0.25"></line><line x1="0" y1="118.6666666666668" x2="272" y2="118.6666666666668" fill="rgb(0, 0, 0)" stroke="rgb(60, 60, 60)" stroke-width="1px" opacity="0.25"></line><line x1="0" y1="98.88888888888901" x2="272" y2="98.88888888888901" fill="rgb(0, 0, 0)" stroke="rgb(60, 60, 60)" stroke-width="1px" opacity="0.25"></line><line x1="0" y1="79.1111111111112" x2="272" y2="79.1111111111112" fill="rgb(0, 0, 0)" stroke="rgb(60, 60, 60)" stroke-width="1px" opacity="0.25"></line><line x1="0" y1="59.3333333333334" x2="272" y2="59.3333333333334" fill="rgb(0, 0, 0)" stroke="rgb(60, 60, 60)" stroke-width="1px" opacity="0.25"></line><line x1="0" y1="39.5555555555556" x2="272" y2="39.5555555555556" fill="rgb(0, 0, 0)" stroke="rgb(60, 60, 60)" stroke-width="1px" opacity="0.25"></line><line x1="0" y1="19.7777777777778" x2="272" y2="19.7777777777778" fill="rgb(0, 0, 0)" stroke="rgb(60, 60, 60)" stroke-width="1px" opacity="0.25"></line><line x1="0" y1="0" x2="272" y2="0" fill="rgb(0, 0, 0)" stroke="rgb(60, 60, 60)" stroke-width="1px" opacity="0.25"></line></g></g></g><g><g><line x1="0" y1="1285.555555555556" x2="272" y2="1285.555555555556" fill="rgb(0, 0, 0)" stroke="rgb(153, 153, 153)" stroke-width="1.5px"></line></g></g><g><g><line x1="-77.71428571428571" y1="0" x2="-77.71428571428571" y2="178" fill="rgb(0, 0, 0)" stroke="rgb(153, 153, 153)" stroke-width="1.5px"></line></g></g><g><g><g><g><g><path stroke="rgb(0, 119, 187)" stroke-width="2px" d="M8.704,144.63460524876922L8.781714285714285,142.763892279731L8.859428571428571,143.189102543725L8.937142857142856,138.68248674604638L9.014857142857142,141.4035023583307L9.092571428571429,141.82859473758282L56.88685714285714,113.59897136688241L56.96457142857143,108.75225808885371L57.04228571428571,105.43616029951315L57.12,99.31405199898622L57.19771428571429,98.37875445683805L105.84685714285713,112.91865852144038L105.92457142857143,114.7893714904786L106.00228571428572,114.3641612264846L106.08,104.50086275736498L106.15771428571429,92.68173853556323L106.23542857142857,85.96443017323818L106.31314285714285,78.39681916766703L106.39085714285714,75.25082906087246L106.46857142857142,71.84961848788798L106.54628571428572,72.44481854968608L106.62400000000001,73.72021357218432L106.70171428571429,76.27112150192269L106.77942857142857,81.62792205810555L106.85714285714286,83.49863502714376L106.93485714285714,88.17524062262648L107.01257142857142,91.91654867596104L107.09028571428573,92.93684111701126L107.168,94.55245150460145L107.24571428571429,91.32134861416294L107.32342857142856,85.96443017323818L107.40114285714286,79.50222439236119L107.47885714285714,74.23041873508036L107.55657142857142,72.01972617043396L107.63428571428572,70.74421326319384L107.712,72.18971596823805L107.78971428571428,83.5836299260458L107.86742857142858,96.59315427144377L107.94514285714286,109.17746835284771L108.02285714285713,117.17017173767098L108.10057142857143,118.44556676016921L108.1782857142857,115.12946897082867L108.256,112.57856104109031L108.3337142857143,108.49715550740568L108.41142857142857,97.52845181359193L108.48914285714285,88.00513294008051L108.56685714285715,81.28782457775547L108.64457142857142,74.65562899907437L108.7222857142857,73.97531615363233L108.80000000000001,72.35982365078404L185.89257142857142,48.38159561157232L185.97028571428572,43.19478485319354L186.048,37.83798429701068L186.12571428571428,34.94697888692224L186.2034285714286,32.82128122117791L186.28114285714284,32.73616843753396L186.35885714285715,31.88598367902972L186.43657142857143,30.185378392537473L186.5142857142857,29.760168128543484L186.592,26.444070339202938L186.6697142857143,25.423660013410824L186.74742857142857,23.46807003021246L186.82514285714285,24.82845995161273L186.90285714285716,25.508772797054775L186.9805714285714,24.91357273525668L234.61942857142856,55.098903973897364L234.69714285714286,59.18030950758198L234.77485714285714,61.73109955257847L234.85257142857142,60.79580201043029L234.93028571428573,60.54069942898228L235.008,56.88450415929165L235.0857142857143,54.58869881100131L235.16342857142857,58.75509924358798L235.24114285714288,59.52040698793205L235.31885714285713,66.91791031095724L235.39657142857143,69.55381313959765L235.47428571428574,77.54651652442091L235.552,77.46152162551888L235.6297142857143,69.97902340359165L235.70742857142858,63.26171504126661L235.78514285714286,60.96590969297627L235.86285714285714,55.43900145424743L235.94057142857145,46.76598522398211L236.0182857142857,42.00438472959735L236.096,37.66787661446472L236.1737142857143,32.99127101898199L236.25142857142856,30.10026560889355L236.32914285714287,31.46077341503573L236.40685714285712,38.60317415661288L236.48457142857143,43.61999511718756L236.5622857142857,50.677400959862666L236.64,48.97679567337042L236.7177142857143,49.82709831661654L236.79542857142857,48.21148792902633L236.87314285714285,45.74569278293191L236.95085714285713,44.980385038587826L237.02857142857144,42.93968227174554L237.1062857142857,39.96368196275506L237.184,34.8619839880202L237.2617142857143,27.54947556389709L237.33942857142856,24.148264990912594L237.41714285714286,21.682469844818172L237.49485714285714,24.233259889814633L237.57257142857142,24.65847015380865L237.6502857142857,29.590178330739377L237.728,29.760168128543484L237.8057142857143,29.930275811089473L237.88342857142857,32.566178639729856L237.96114285714287,34.09667624367614L238.03885714285713,34.35177882512414L238.11657142857143,35.457184049818295L238.1942857142857,36.05238411161639" style="fill: none;" fill="none"></path></g></g></g></g></g></g><g transform="translate(58, 178)" clip-path="url(#clip_1)"><clipPath id="clip_1"><rect width="272" height="22"></rect></clipPath><g><g><line x1="0" y1="0" x2="0" y2="5" style="visibility: inherit;" fill="rgb(0, 0, 0)" stroke="rgb(204, 204, 204)" stroke-width="1px"></line><line x1="38.857142857142854" y1="0" x2="38.857142857142854" y2="5" style="visibility: inherit;" fill="rgb(0, 0, 0)" stroke="rgb(204, 204, 204)" stroke-width="1px"></line><line x1="77.71428571428571" y1="0" x2="77.71428571428571" y2="5" style="visibility: inherit;" fill="rgb(0, 0, 0)" stroke="rgb(204, 204, 204)" stroke-width="1px"></line><line x1="116.57142857142857" y1="0" x2="116.57142857142857" y2="5" style="visibility: inherit;" fill="rgb(0, 0, 0)" stroke="rgb(204, 204, 204)" stroke-width="1px"></line><line x1="155.42857142857142" y1="0" x2="155.42857142857142" y2="5" style="visibility: inherit;" fill="rgb(0, 0, 0)" stroke="rgb(204, 204, 204)" stroke-width="1px"></line><line x1="194.28571428571428" y1="0" x2="194.28571428571428" y2="5" style="visibility: inherit;" fill="rgb(0, 0, 0)" stroke="rgb(204, 204, 204)" stroke-width="1px"></line><line x1="233.14285714285714" y1="0" x2="233.14285714285714" y2="5" style="visibility: inherit;" fill="rgb(0, 0, 0)" stroke="rgb(204, 204, 204)" stroke-width="1px"></line><line x1="272" y1="0" x2="272" y2="5" style="visibility: inherit;" fill="rgb(0, 0, 0)" stroke="rgb(204, 204, 204)" stroke-width="1px"></line></g><g transform="translate(0, 8)"><text x="0" y="0" dx="0em" dy="0.95em" style="text-anchor: middle; visibility: hidden; font-family: &quot;Helvetica Neue&quot;, sans-serif; font-size: 12px; font-weight: 200;" fill="rgb(50, 49, 63)" stroke="none" stroke-width="1px">1k</text><text x="38.857142857142854" y="0" dx="0em" dy="0.95em" style="text-anchor: middle; visibility: inherit; font-family: &quot;Helvetica Neue&quot;, sans-serif; font-size: 12px; font-weight: 200;" fill="rgb(50, 49, 63)" stroke="none" stroke-width="1px">1.5k</text><text x="77.71428571428571" y="0" dx="0em" dy="0.95em" style="text-anchor: middle; visibility: inherit; font-family: &quot;Helvetica Neue&quot;, sans-serif; font-size: 12px; font-weight: 200;" fill="rgb(50, 49, 63)" stroke="none" stroke-width="1px">2k</text><text x="116.57142857142857" y="0" dx="0em" dy="0.95em" style="text-anchor: middle; visibility: inherit; font-family: &quot;Helvetica Neue&quot;, sans-serif; font-size: 12px; font-weight: 200;" fill="rgb(50, 49, 63)" stroke="none" stroke-width="1px">2.5k</text><text x="155.42857142857142" y="0" dx="0em" dy="0.95em" style="text-anchor: middle; visibility: inherit; font-family: &quot;Helvetica Neue&quot;, sans-serif; font-size: 12px; font-weight: 200;" fill="rgb(50, 49, 63)" stroke="none" stroke-width="1px">3k</text><text x="194.28571428571428" y="0" dx="0em" dy="0.95em" style="text-anchor: middle; visibility: inherit; font-family: &quot;Helvetica Neue&quot;, sans-serif; font-size: 12px; font-weight: 200;" fill="rgb(50, 49, 63)" stroke="none" stroke-width="1px">3.5k</text><text x="233.14285714285714" y="0" dx="0em" dy="0.95em" style="text-anchor: middle; visibility: inherit; font-family: &quot;Helvetica Neue&quot;, sans-serif; font-size: 12px; font-weight: 200;" fill="rgb(50, 49, 63)" stroke="none" stroke-width="1px">4k</text><text x="272" y="0" dx="0em" dy="0.95em" style="text-anchor: middle; visibility: hidden; font-family: &quot;Helvetica Neue&quot;, sans-serif; font-size: 12px; font-weight: 200;" fill="rgb(50, 49, 63)" stroke="none" stroke-width="1px">4.5k</text></g><line x1="0" y1="0" x2="272" y2="0" fill="rgb(0, 0, 0)" stroke="rgb(204, 204, 204)" stroke-width="1px"></line></g></g></g></g></svg>