<svg viewBox="0 0 330 200" xmlns="http://www.w3.org/2000/svg"><g><g><g><g><g><line x1="70" y1="165.12067825347245" x2="65" y2="165.12067825347245" style="visibility: inherit;" fill="rgb(0, 0, 0)" stroke="rgb(204, 204, 204)" stroke-width="1px"></line><line x1="70" y1="146.6294272050585" x2="65" y2="146.6294272050585" style="visibility: inherit;" fill="rgb(0, 0, 0)" stroke="rgb(204, 204, 204)" stroke-width="1px"></line><line x1="70" y1="128.13817615664453" x2="65" y2="128.13817615664453" style="visibility: inherit;" fill="rgb(0, 0, 0)" stroke="rgb(204, 204, 204)" stroke-width="1px"></line><line x1="70" y1="109.64692510823058" x2="65" y2="109.64692510823058" style="visibility: inherit;" fill="rgb(0, 0, 0)" stroke="rgb(204, 204, 204)" stroke-width="1px"></line><line x1="70" y1="91.15567405981662" x2="65" y2="91.15567405981662" style="visibility: inherit;" fill="rgb(0, 0, 0)" stroke="rgb(204, 204, 204)" stroke-width="1px"></line><line x1="70" y1="72.66442301140266" x2="65" y2="72.66442301140266" style="visibility: inherit;" fill="rgb(0, 0, 0)" stroke="rgb(204, 204, 204)" stroke-width="1px"></line><line x1="70" y1="54.17317196298869" x2="65" y2="54.17317196298869" style="visibility: inherit;" fill="rgb(0, 0, 0)" stroke="rgb(204, 204, 204)" stroke-width="1px"></line><line x1="70" y1="35.68192091457476" x2="65" y2="35.68192091457476" style="visibility: inherit;" fill="rgb(0, 0, 0)" stroke="rgb(204, 204, 204)" stroke-width="1px"></line><line x1="70" y1="17.19066986616079" x2="65" y2="17.19066986616079" style="visibility: inherit;" fill="rgb(0, 0, 0)" stroke="rgb(204, 204, 204)" stroke-width="1px"></line></g><g transform="translate(60, 0)"><text x="0" y="165.12067825347245" dx="0em" dy="0.3em" style="text-anchor: end; visibility: inherit; font-family: &quot;Helvetica Neue&quot;, sans-serif; font-size: 12px; font-weight: 200;" fill="rgb(50, 49, 63)" stroke="none" stroke-width="1px">0.131</text><text x="0" y="146.6294272050585" dx="0em" dy="0.3em" style="text-anchor: end; visibility: hidden; font-family: &quot;Helvetica Neue&quot;, sans-serif; font-size: 12px; font-weight: 200;" fill="rgb(50, 49, 63)" stroke="none" stroke-width="1px">0.132</text><text x="0" y="128.13817615664453" dx="0em" dy="0.3em" style="text-anchor: end; visibility: inherit; font-family: &quot;Helvetica Neue&quot;, sans-serif; font-size: 12px; font-weight: 200;" fill="rgb(50, 49, 63)" stroke="none" stroke-width="1px">0.133</text><text x="0" y="109.64692510823058" dx="0em" dy="0.3em" style="text-anchor: end; visibility: hidden; font-family: &quot;Helvetica Neue&quot;, sans-serif; font-size: 12px; font-weight: 200;" fill="rgb(50, 49, 63)" stroke="none" stroke-width="1px">0.134</text><text x="0" y="91.15567405981662" dx="0em" dy="0.3em" style="text-anchor: end; visibility: inherit; font-family: &quot;Helvetica Neue&quot;, sans-serif; font-size: 12px; font-weight: 200;" fill="rgb(50, 49, 63)" stroke="none" stroke-width="1px">0.135</text><text x="0" y="72.66442301140266" dx="0em" dy="0.3em" style="text-anchor: end; visibility: hidden; font-family: &quot;Helvetica Neue&quot;, sans-serif; font-size: 12px; font-weight: 200;" fill="rgb(50, 49, 63)" stroke="none" stroke-width="1px">0.136</text><text x="0" y="54.17317196298869" dx="0em" dy="0.3em" style="text-anchor: end; visibility: inherit; font-family: &quot;Helvetica Neue&quot;, sans-serif; font-size: 12px; font-weight: 200;" fill="rgb(50, 49, 63)" stroke="none" stroke-width="1px">0.137</text><text x="0" y="35.68192091457476" dx="0em" dy="0.3em" style="text-anchor: end; visibility: hidden; font-family: &quot;Helvetica Neue&quot;, sans-serif; font-size: 12px; font-weight: 200;" fill="rgb(50, 49, 63)" stroke="none" stroke-width="1px">0.138</text><text x="0" y="17.19066986616079" dx="0em" dy="0.3em" style="text-anchor: end; visibility: inherit; font-family: &quot;Helvetica Neue&quot;, sans-serif; font-size: 12px; font-weight: 200;" fill="rgb(50, 49, 63)" stroke="none" stroke-width="1px">0.139</text></g><line x1="70" y1="0" x2="70" y2="178" fill="rgb(0, 0, 0)" stroke="rgb(204, 204, 204)" stroke-width="1px"></line></g></g><g transform="translate(70, 0)" clip-path="url(#clip_0)"><clipPath id="clip_0"><rect width="260" height="178"></rect></clipPath><g><g><g><line x1="13.755162588596733" y1="0" x2="13.755162588596733" y2="178" fill="rgb(0, 0, 0)" stroke="rgb(60, 60, 60)" stroke-width="1px" opacity="0.25"></line><line x1="32.27609461782675" y1="0" x2="32.27609461782675" y2="178" fill="rgb(0, 0, 0)" stroke="rgb(60, 60, 60)" stroke-width="1px" opacity="0.25"></line><line x1="50.79702664705677" y1="0" x2="50.79702664705677" y2="178" fill="rgb(0, 0, 0)" stroke="rgb(60, 60, 60)" stroke-width="1px" opacity="0.25"></line><line x1="69.31795867628678" y1="0" x2="69.31795867628678" y2="178" fill="rgb(0, 0, 0)" stroke="rgb(60, 60, 60)" stroke-width="1px" opacity="0.25"></line><line x1="87.83889070551679" y1="0" x2="87.83889070551679" y2="178" fill="rgb(0, 0, 0)" stroke="rgb(60, 60, 60)" stroke-width="1px" opacity="0.25"></line><line x1="106.35982273474681" y1="0" x2="106.35982273474681" y2="178" fill="rgb(0, 0, 0)" stroke="rgb(60, 60, 60)" stroke-width="1px" opacity="0.25"></line><line x1="124.88075476397682" y1="0" x2="124.88075476397682" y2="178" fill="rgb(0, 0, 0)" stroke="rgb(60, 60, 60)" stroke-width="1px" opacity="0.25"></line><line x1="143.40168679320684" y1="0" x2="143.40168679320684" y2="178" fill="rgb(0, 0, 0)" stroke="rgb(60, 60, 60)" stroke-width="1px" opacity="0.25"></line><line x1="161.92261882243687" y1="0" x2="161.92261882243687" y2="178" fill="rgb(0, 0, 0)" stroke="rgb(60, 60, 60)" stroke-width="1px" opacity="0.25"></line><line x1="180.44355085166686" y1="0" x2="180.44355085166686" y2="178" fill="rgb(0, 0, 0)" stroke="rgb(60, 60, 60)" stroke-width="1px" opacity="0.25"></line><line x1="198.9644828808969" y1="0" x2="198.9644828808969" y2="178" fill="rgb(0, 0, 0)" stroke="rgb(60, 60, 60)" stroke-width="1px" opacity="0.25"></line><line x1="217.4854149101269" y1="0" x2="217.4854149101269" y2="178" fill="rgb(0, 0, 0)" stroke="rgb(60, 60, 60)" stroke-width="1px" opacity="0.25"></line><line x1="236.00634693935692" y1="0" x2="236.00634693935692" y2="178" fill="rgb(0, 0, 0)" stroke="rgb(60, 60, 60)" stroke-width="1px" opacity="0.25"></line><line x1="254.52727896858693" y1="0" x2="254.52727896858693" y2="178" fill="rgb(0, 0, 0)" stroke="rgb(60, 60, 60)" stroke-width="1px" opacity="0.25"></line></g><g><line x1="0" y1="165.12067825347245" x2="260" y2="165.12067825347245" fill="rgb(0, 0, 0)" stroke="rgb(60, 60, 60)" stroke-width="1px" opacity="0.25"></line><line x1="0" y1="146.6294272050585" x2="260" y2="146.6294272050585" fill="rgb(0, 0, 0)" stroke="rgb(60, 60, 60)" stroke-width="1px" opacity="0.25"></line><line x1="0" y1="128.13817615664453" x2="260" y2="128.13817615664453" fill="rgb(0, 0, 0)" stroke="rgb(60, 60, 60)" stroke-width="1px" opacity="0.25"></line><line x1="0" y1="109.64692510823058" x2="260" y2="109.64692510823058" fill="rgb(0, 0, 0)" stroke="rgb(60, 60, 60)" stroke-width="1px" opacity="0.25"></line><line x1="0" y1="91.15567405981662" x2="260" y2="91.15567405981662" fill="rgb(0, 0, 0)" stroke="rgb(60, 60, 60)" stroke-width="1px" opacity="0.25"></line><line x1="0" y1="72.66442301140266" x2="260" y2="72.66442301140266" fill="rgb(0, 0, 0)" stroke="rgb(60, 60, 60)" stroke-width="1px" opacity="0.25"></line><line x1="0" y1="54.17317196298869" x2="260" y2="54.17317196298869" fill="rgb(0, 0, 0)" stroke="rgb(60, 60, 60)" stroke-width="1px" opacity="0.25"></line><line x1="0" y1="35.68192091457476" x2="260" y2="35.68192091457476" fill="rgb(0, 0, 0)" stroke="rgb(60, 60, 60)" stroke-width="1px" opacity="0.25"></line><line x1="0" y1="17.19066986616079" x2="260" y2="17.19066986616079" fill="rgb(0, 0, 0)" stroke="rgb(60, 60, 60)" stroke-width="1px" opacity="0.25"></line></g></g></g><g><g><line x1="0" y1="2587.474565595699" x2="260" y2="2587.474565595699" fill="rgb(0, 0, 0)" stroke="rgb(153, 153, 153)" stroke-width="1.5px"></line></g></g><g><g><line x1="-115.89136161601338" y1="0" x2="-115.89136161601338" y2="178" fill="rgb(0, 0, 0)" stroke="rgb(153, 153, 153)" stroke-width="1.5px"></line></g></g><g><g><g><g><g><path stroke="rgb(0, 119, 187)" stroke-width="2px" d="M-12.451956232763738,77.28759067045928L44.499909757118566,39.187418873952794L44.59251441726471,54.524863821729966L44.68511907741086,65.741591431347L44.77772373755701,74.3635483840965L44.87032839770316,85.85581710626187L102.8408456491931,11.41783446910793L102.93345030933926,8.274736998269248L103.0260549694854,4.870977634959843L103.11865962963157,17.845657542635166L103.2112642897777,36.07959066552027L103.30386894992387,47.14807715658634L103.39647361007,61.11057195274738L103.48907827021617,71.30862406927328L103.5816829303623,73.84718433918096L103.67428759050846,61.21885960997888L103.76689225065462,49.74477660124171L103.85949691080076,49.306115150064784L103.95210157094692,32.84501354531557L104.04470623109306,19.5793622227892L104.13731089123922,2.122455037290365L104.22991555138536,-20.73092483746737L104.41512487167766,-19.528463422306515L104.50772953182381,4.0854099230845975L104.60033419196996,28.028830439083464L104.69293885211611,60.50823908071675L104.78554351226227,82.5953391214776L104.87814817240842,99.98225886438917L104.97075283255457,114.14093893268462L105.06335749270072,124.12572222809811L105.15596215284687,115.76415162670678L105.24856681299302,100.57329455080531L105.34117147313916,87.39829625430735L105.43377613328532,77.73258956722484L105.52638079343146,87.77248108514799L105.61898545357762,98.14384856146678L105.71159011372376,102.83686479038977L105.80419477386992,104.77970517496797L105.89679943401606,115.4745579174185L105.98940409416223,122.43334871482634L106.08200875430836,125.04740724957225L106.17461341445451,123.97527678064674L106.26721807460066,117.12945783938372L106.35982273474681,111.4395338652609L198.2236455997277,82.32833978341826L198.31625025987384,83.35087285208509L198.40885492002002,88.49935854005045L198.50145958016614,90.06250327153707L198.5940642403123,106.49577522391893L198.68666890045844,115.46711830737968L198.7792735606046,134.89524661204922L198.87187822075074,139.1592453287345L198.9644828808969,129.56490378980197L199.05708754104305,131.82682078271114L199.1496922011892,130.4695052622981L199.24229686133535,119.85951918251249L199.3349015214815,107.56019054169309L199.42750618162762,100.06216578702818L199.5201108417738,92.91600703308748L256.2867675113638,71.64698855548262L256.37937217150994,54.99631466530016L256.4719768316561,47.472389046055724L256.56458149180224,49.542804965743784L256.6571861519484,59.32368783787153L256.74979081209455,79.72530289317429L256.8423954722407,98.99389289367835L256.93500013238685,107.58333599514714L257.027604792533,114.99291205268403L257.12020945267915,110.68400013465339L257.2128141128253,105.94579516327246L257.30541877297145,96.74106875748328L257.3980234331176,96.24261488488337L257.49062809326375,108.55379179354232L257.5832327534099,122.78907229112622L257.67583741355605,122.25893119058324L257.7684420737022,124.88897110985697L257.86104673384835,123.11035322835755L257.9536513939945,120.11742566385769L258.04625605414066,126.23829593800609L258.1388607142868,130.05481588791287L258.23146537443296,131.68849914421187L258.3240700345791,126.4419208201793L258.41667469472526,115.18303542034238L258.5092793548714,108.2548296864274L258.60188401501756,107.45162734334905L258.6944886751637,111.16206396492473L258.78709333530986,111.05956267105675L258.879697995456,113.28565931933464L258.97230265560216,119.45998456931741L259.06490731574826,125.00938257604058L259.15751197589447,129.85311979352753L259.2501166360406,135.3049762464086L259.34272129618677,151.1667759313652L259.43532595633286,161.3653791301162L259.52793061647907,162.68852755257325L259.6205352766252,158.444643337104L259.7131399367713,146.6013352375521L259.80574459691746,137.84684300966683L259.89834925706367,129.47921050379944L259.9909539172098,135.30470070529603L260.0835585773559,141.43631708283382" style="fill: none;" fill="none"></path></g></g></g></g></g></g><g transform="translate(70, 178)" clip-path="url(#clip_1)"><clipPath id="clip_1"><rect width="260" height="22"></rect></clipPath><g><g><line x1="13.755162588596733" y1="0" x2="13.755162588596733" y2="5" style="visibility: inherit;" fill="rgb(0, 0, 0)" stroke="rgb(204, 204, 204)" stroke-width="1px"></line><line x1="32.27609461782675" y1="0" x2="32.27609461782675" y2="5" style="visibility: inherit;" fill="rgb(0, 0, 0)" stroke="rgb(204, 204, 204)" stroke-width="1px"></line><line x1="50.79702664705677" y1="0" x2="50.79702664705677" y2="5" style="visibility: inherit;" fill="rgb(0, 0, 0)" stroke="rgb(204, 204, 204)" stroke-width="1px"></line><line x1="69.31795867628678" y1="0" x2="69.31795867628678" y2="5" style="visibility: inherit;" fill="rgb(0, 0, 0)" stroke="rgb(204, 204, 204)" stroke-width="1px"></line><line x1="87.83889070551679" y1="0" x2="87.83889070551679" y2="5" style="visibility: inherit;" fill="rgb(0, 0, 0)" stroke="rgb(204, 204, 204)" stroke-width="1px"></line><line x1="106.35982273474681" y1="0" x2="106.35982273474681" y2="5" style="visibility: inherit;" fill="rgb(0, 0, 0)" stroke="rgb(204, 204, 204)" stroke-width="1px"></line><line x1="124.88075476397682" y1="0" x2="124.88075476397682" y2="5" style="visibility: inherit;" fill="rgb(0, 0, 0)" stroke="rgb(204, 204, 204)" stroke-width="1px"></line><line x1="143.40168679320684" y1="0" x2="143.40168679320684" y2="5" style="visibility: inherit;" fill="rgb(0, 0, 0)" stroke="rgb(204, 204, 204)" stroke-width="1px"></line><line x1="161.92261882243687" y1="0" x2="161.92261882243687" y2="5" style="visibility: inherit;" fill="rgb(0, 0, 0)" stroke="rgb(204, 204, 204)" stroke-width="1px"></line><line x1="180.44355085166686" y1="0" x2="180.44355085166686" y2="5" style="visibility: inherit;" fill="rgb(0, 0, 0)" stroke="rgb(204, 204, 204)" stroke-width="1px"></line><line x1="198.9644828808969" y1="0" x2="198.9644828808969" y2="5" style="visibility: inherit;" fill="rgb(0, 0, 0)" stroke="rgb(204, 204, 204)" stroke-width="1px"></line><line x1="217.4854149101269" y1="0" x2="217.4854149101269" y2="5" style="visibility: inherit;" fill="rgb(0, 0, 0)" stroke="rgb(204, 204, 204)" stroke-width="1px"></line><line x1="236.00634693935692" y1="0" x2="236.00634693935692" y2="5" style="visibility: inherit;" fill="rgb(0, 0, 0)" stroke="rgb(204, 204, 204)" stroke-width="1px"></line><line x1="254.52727896858693" y1="0" x2="254.52727896858693" y2="5" style="visibility: inherit;" fill="rgb(0, 0, 0)" stroke="rgb(204, 204, 204)" stroke-width="1px"></line></g><g transform="translate(0, 8)"><text x="13.755162588596733" y="0" dx="0em" dy="0.95em" style="text-anchor: middle; visibility: inherit; font-family: &quot;Helvetica Neue&quot;, sans-serif; font-size: 12px; font-weight: 200;" fill="rgb(50, 49, 63)" stroke="none" stroke-width="1px">1.4k</text><text x="32.27609461782675" y="0" dx="0em" dy="0.95em" style="text-anchor: middle; visibility: hidden; font-family: &quot;Helvetica Neue&quot;, sans-serif; font-size: 12px; font-weight: 200;" fill="rgb(50, 49, 63)" stroke="none" stroke-width="1px">1.6k</text><text x="50.79702664705677" y="0" dx="0em" dy="0.95em" style="text-anchor: middle; visibility: inherit; font-family: &quot;Helvetica Neue&quot;, sans-serif; font-size: 12px; font-weight: 200;" fill="rgb(50, 49, 63)" stroke="none" stroke-width="1px">1.8k</text><text x="69.31795867628678" y="0" dx="0em" dy="0.95em" style="text-anchor: middle; visibility: hidden; font-family: &quot;Helvetica Neue&quot;, sans-serif; font-size: 12px; font-weight: 200;" fill="rgb(50, 49, 63)" stroke="none" stroke-width="1px">2k</text><text x="87.83889070551679" y="0" dx="0em" dy="0.95em" style="text-anchor: middle; visibility: inherit; font-family: &quot;Helvetica Neue&quot;, sans-serif; font-size: 12px; font-weight: 200;" fill="rgb(50, 49, 63)" stroke="none" stroke-width="1px">2.2k</text><text x="106.35982273474681" y="0" dx="0em" dy="0.95em" style="text-anchor: middle; visibility: hidden; font-family: &quot;Helvetica Neue&quot;, sans-serif; font-size: 12px; font-weight: 200;" fill="rgb(50, 49, 63)" stroke="none" stroke-width="1px">2.4k</text><text x="124.88075476397682" y="0" dx="0em" dy="0.95em" style="text-anchor: middle; visibility: inherit; font-family: &quot;Helvetica Neue&quot;, sans-serif; font-size: 12px; font-weight: 200;" fill="rgb(50, 49, 63)" stroke="none" stroke-width="1px">2.6k</text><text x="143.40168679320684" y="0" dx="0em" dy="0.95em" style="text-anchor: middle; visibility: hidden; font-family: &quot;Helvetica Neue&quot;, sans-serif; font-size: 12px; font-weight: 200;" fill="rgb(50, 49, 63)" stroke="none" stroke-width="1px">2.8k</text><text x="161.92261882243687" y="0" dx="0em" dy="0.95em" style="text-anchor: middle; visibility: inherit; font-family: &quot;Helvetica Neue&quot;, sans-serif; font-size: 12px; font-weight: 200;" fill="rgb(50, 49, 63)" stroke="none" stroke-width="1px">3k</text><text x="180.44355085166686" y="0" dx="0em" dy="0.95em" style="text-anchor: middle; visibility: hidden; font-family: &quot;Helvetica Neue&quot;, sans-serif; font-size: 12px; font-weight: 200;" fill="rgb(50, 49, 63)" stroke="none" stroke-width="1px">3.2k</text><text x="198.9644828808969" y="0" dx="0em" dy="0.95em" style="text-anchor: middle; visibility: inherit; font-family: &quot;Helvetica Neue&quot;, sans-serif; font-size: 12px; font-weight: 200;" fill="rgb(50, 49, 63)" stroke="none" stroke-width="1px">3.4k</text><text x="217.4854149101269" y="0" dx="0em" dy="0.95em" style="text-anchor: middle; visibility: hidden; font-family: &quot;Helvetica Neue&quot;, sans-serif; font-size: 12px; font-weight: 200;" fill="rgb(50, 49, 63)" stroke="none" stroke-width="1px">3.6k</text><text x="236.00634693935692" y="0" dx="0em" dy="0.95em" style="text-anchor: middle; visibility: inherit; font-family: &quot;Helvetica Neue&quot;, sans-serif; font-size: 12px; font-weight: 200;" fill="rgb(50, 49, 63)" stroke="none" stroke-width="1px">3.8k</text><text x="254.52727896858693" y="0" dx="0em" dy="0.95em" style="text-anchor: middle; visibility: hidden; font-family: &quot;Helvetica Neue&quot;, sans-serif; font-size: 12px; font-weight: 200;" fill="rgb(50, 49, 63)" stroke="none" stroke-width="1px">4k</text></g><line x1="0" y1="0" x2="260" y2="0" fill="rgb(0, 0, 0)" stroke="rgb(204, 204, 204)" stroke-width="1px"></line></g></g></g></g></svg>